<svg xmlns="http://www.w3.org/2000/svg" viewBox="0 0 699.26 699.26"><defs><style>.cls-1,.cls-2{fill:#dec896;}.cls-2{opacity:0.4;}</style></defs><title>Mesa de trabajo 9</title><g id="Capa_3" data-name="Capa 3"><circle class="cls-1" cx="150.76" cy="444.32" r="6.71"/><circle class="cls-1" cx="548.47" cy="444.32" r="6.71"/><path class="cls-1" d="M123.15,405.5,121.86,398l17.64-11.93-20.61-5.27-1.27-7.38,24.65-4.26.84,4.87-20.41,3.31v.07l22,5.6.76,4.42L126.61,400v.07L147,396.37l.84,4.87Z"/><path class="cls-1" d="M117,353.62l-.1-6.23,24.82-11.57.1,5.85-6.15,2.74.19,11.77,6.25,2.49.09,5.67Zm14.77-7.57-10.47,4.45,10.61,4.17Z"/><path class="cls-1" d="M117.73,327.36l.76-5.2L130,323.83l-9.63-14.32,1-7.15,8.37,13,16.49-10.13-1,7-12.76,7.63,3.1,4.74,7.69,1.12-.75,5.2Z"/><path class="cls-1" d="M123.66,293.05l6.21-20.82,3.76,1.12-4.7,15.78,6,1.8,4.52-15.14,3.76,1.12-4.52,15.15,6.65,2L150.17,278l3.76,1.12-6.29,21.09Z"/><path class="cls-1" d="M158.13,247.08l-18.84,2.08,3.1-5.61,13.21-.87L149.3,231l3.1-5.61,8.27,17.05,8.35,4.61-2.54,4.6Z"/><path class="cls-1" d="M166.28,226.85c-5.58-4.3-7.93-11.34-1.46-19.72s13.87-7.88,19.45-3.57,7.93,11.34,1.46,19.72S171.85,231.16,166.28,226.85Zm14.65-19c-4.33-3.34-9.41-3-13,1.65s-2.63,9.66,1.7,13,9.41,3,13-1.65S185.25,211.22,180.93,207.88Z"/><path class="cls-1" d="M181.28,188.58l3.82-3.6,9.68,10.28c2.38,2.52,5.34,5.51,10.34.81s2.2-7.9-.16-10.4l-9.68-10.28,3.83-3.6,9.78,10.38c2.83,3,7.75,8.44-1.08,16.75s-13.9,3.08-16.76,0Z"/><path class="cls-1" d="M207.93,164.71l13-9c5.25-3.63,8.58-2.44,10.81.79,1.85,2.69,1.57,5.35,0,7.31l0,.06c2.78-1.15,4.81.56,6.85,3.5.69,1,2.27,3.24,3.91,3.81l-4.68,3.23a8.49,8.49,0,0,1-2.66-2.76c-2-2.91-3.9-4.72-7-2.55l-7.35,5.08,5.62,8.13-4.33,3Zm18.17,1.08c2.42-1.67,3.19-3.27,1.6-5.57s-3.43-2-5.74-.43L214.49,165l4.14,6Z"/><path class="cls-1" d="M252.65,137.72l12.55-4.95c9.13-3.61,13.43.72,16.06,7.37,2,5,2.23,12.31-5.69,15.44L261.84,161Zm12.64,17.69,6.88-2.71c3.52-1.39,6.82-4,4.12-10.83-3-7.56-8-6.12-10.69-5L259,139.44Z"/><path class="cls-1" d="M286.74,125.27l15.45-3.49c6.22-1.4,8.87,1,9.73,4.77a5.85,5.85,0,0,1-2.71,6.79l0,.07c3,0,4.26,2.31,5,5.79.27,1.2.91,3.86,2.21,5l-5.54,1.25a8.54,8.54,0,0,1-1.45-3.55c-.78-3.45-1.85-5.83-5.58-5l-8.71,2,2.18,9.63-5.13,1.16Zm16.45,7.78c2.87-.65,4.18-1.84,3.56-4.58-.58-2.56-2.44-3.14-5.17-2.53l-8.85,2,1.6,7.11Z"/><path class="cls-1" d="M320.91,118.49l21.66-1.69.31,3.91L326.45,122l.5,6.29,15.75-1.23L343,131l-15.76,1.23.54,6.91,16.7-1.3.31,3.91-21.94,1.72Z"/><path class="cls-1" d="M361.26,117.23l6.22.39L377,143.29l-5.84-.37L369,136.57l-11.75-.74-3,6-5.67-.35Zm6.38,15.32L364,121.76,359,132Z"/><path class="cls-1" d="M387.59,119.48l7.36,1.74L399,142.13l12.93-16.89,7.3,1.73-5.77,24.35-4.81-1.14,5-20.07-.06,0-13.77,18-4.37-1-4.16-22.23h-.07L386.63,145l-4.81-1.14Z"/><path class="cls-1" d="M439.57,134.23c3.55,1.5,10.35,5.12,8.18,12.08l-5.24-2.2c.61-1.88-.21-4.47-4.24-6.17-3.23-1.36-5.77-1.29-6.7.91-2.3,5.45,17.1,7.43,12.94,17.32-2.51,5.94-9.33,4.89-14.24,2.82-8.3-3.5-10.22-8.15-8.27-13l5.23,2.21c-1.17,3.12.72,5.59,4.73,7.28,3,1.25,6.06,1.49,7.11-1,2.41-5.71-16.67-7.9-12.69-17.36C428.56,131.91,434,131.86,439.57,134.23Z"/><path class="cls-1" d="M486.07,172.54c1.73-3.38.58-7-3-9.59-3.95-2.84-8.74-2.3-12.53,3a8.4,8.4,0,0,0,2,12.3c4.44,3.19,8,1.24,10-.66l4.61,3.31c-3.47,3.58-9.25,6-17.6,0-7.37-5.29-7.26-12.79-3.15-18.51s11.08-8.31,19.06-2.59c7,5,8,11.31,5.3,16Z"/><path class="cls-1" d="M494.55,183.25c5-5,12.25-6.44,19.74,1S520.37,199,515.4,204s-12.25,6.44-19.75-1S489.58,188.24,494.55,183.25Zm17,16.92c3.85-3.88,4.17-9,0-13.11s-9.25-3.82-13.11.05-4.17,8.95,0,13.11S507.67,204,511.53,200.17Z"/><path class="cls-1" d="M531.2,203.24l4.34,6.2-10.91,18.3,20.9-4,4.29,6.15L529.3,244.23l-2.82-4,17.07-11.67,0,0-22.25,4.25L518.69,229l11.7-19.37,0-.06-16.84,12-2.82-4.05Z"/><path class="cls-1" d="M555.36,240.36,564.69,260l-3.54,1.69-7.08-14.88-5.7,2.71,6.79,14.27-3.54,1.69-6.79-14.27-6.27,3,7.2,15.13L542.21,271l-9.45-19.87Z"/><path class="cls-1" d="M571.47,293.63l-2.19-9.14,3.82-.91L578.7,307l-3.82.91-2.19-9.13-20.51,4.91L551,298.54Z"/><path class="cls-1" d="M580.1,315.58l1.51,15.77c.61,6.34-2.05,8.67-6,9a5.86,5.86,0,0,1-6.39-3.54h-.07c-.35,3-2.83,3.93-6.39,4.27-1.22.12-3.93.42-5.23,1.56L557,337a8.51,8.51,0,0,1,3.7-1c3.53-.33,6-1.1,5.66-4.9l-.85-8.9-9.84.94-.5-5.23Zm-9.79,15.33c.28,2.93,1.3,4.38,4.09,4.12,2.61-.25,3.43-2,3.16-4.81l-.86-9-7.26.69Z"/><path class="cls-1" d="M582.6,350.21l-.28,5.25-14.1-.76c-3.46-.19-7.67-.32-8,6.54s3.85,7.23,7.28,7.42l14.1.76-.28,5.25L567,373.9c-4.13-.23-11.44-.76-10.78-12.87s7.94-11.81,12.1-11.59Z"/><path class="cls-1" d="M579.73,385.79l-4.31,21.3-3.84-.78,3.26-16.15-6.18-1.25-3.14,15.49-3.84-.77,3.13-15.5-6.8-1.37-3.32,16.42-3.85-.78,4.37-21.58Z"/><path class="cls-1" d="M356.69,325.26a26.33,26.33,0,0,0-14.85-4.37,28.25,28.25,0,0,0-18.22,6.43A43.47,43.47,0,0,0,311,344.56a60,60,0,0,0-4.62,23.84q0,14,4.86,23.42A35.3,35.3,0,0,0,323.78,406a29.09,29.09,0,0,0,35.13-2.39c5.89-4.78,10.14-12.07,12.12-21.42a25.57,25.57,0,0,1-14.79,9.71c-5,1.11-10.54.6-14.85-2.2-6.09-3.95-8.89-12.32-10.18-20.53H371V355.69a40.66,40.66,0,0,0-3.88-18.22A30.55,30.55,0,0,0,356.69,325.26ZM330.57,363.9c-.25-2.79-.36-5.45-.41-7.76.14-9.07.89-18.1,2.28-22.55q2.31-7.43,5.94-7.42c7.87,0,6.12,32.95,6.53,37.73Z"/><path class="cls-1" d="M441.61,355.69a40.66,40.66,0,0,0-3.87-18.22,30.57,30.57,0,0,0-10.48-12.21,26.29,26.29,0,0,0-14.84-4.37,28.28,28.28,0,0,0-18.23,6.43,43.66,43.66,0,0,0-12.62,17.24A60,60,0,0,0,377,368.4q0,14,4.87,23.42A35.16,35.16,0,0,0,394.36,406a29.09,29.09,0,0,0,35.13-2.39c5.88-4.78,10.13-12.07,12.11-21.42a25.57,25.57,0,0,1-14.79,9.71c-5,1.11-10.54.6-14.85-2.2-6.08-3.95-8.88-12.32-10.17-20.53h39.82Zm-40.46,8.21c-.26-2.79-.37-5.45-.42-7.76.14-9.07.9-18.1,2.29-22.55q2.3-7.43,5.93-7.42c7.87,0,6.13,32.95,6.54,37.73Z"/><path class="cls-1" d="M444.29,408.25H482.2s-5.95-1.74-5.95-13h0l0-117.24a48.34,48.34,0,0,1-32.66,12.34c6.51,6.5,6.57,13.71,6.57,13.71v91.19C450.2,406.51,444.29,408.25,444.29,408.25Z"/><path class="cls-1" d="M278.41,363c32.49-7,34-56.19,13-71.61s-74.4-5.1-74.4-5.1a17.06,17.06,0,0,1,9.27,15.18v92.62a16.18,16.18,0,0,1-.48,4,15.47,15.47,0,0,1-8.79,10.16h45a13.84,13.84,0,0,1-7.55-6.68,18.07,18.07,0,0,1-2.16-8.68V369.17s11.71,50.68,65.11,52.1C317.49,421.27,278.41,392.46,278.41,363Zm-26.05-56.55q0-7.35,2.24-11.35a7,7,0,0,1,6.39-4q7,0,11.12,9.36t4.07,24.86q0,14.72-5.27,22.87t-15.67,8.15a26.32,26.32,0,0,1-2.88-.16Z"/><path class="cls-2" d="M657.18,363c32.49-7,34-56.19,13.05-71.61s-74.4-5.1-74.4-5.1a17.06,17.06,0,0,1,9.27,15.18v92.62a16.18,16.18,0,0,1-.48,4,15.47,15.47,0,0,1-8.79,10.16h45a13.84,13.84,0,0,1-7.55-6.68,18.07,18.07,0,0,1-2.16-8.68V369.17s11.71,50.68,65.11,52.1C696.26,421.27,657.18,392.46,657.18,363Zm-26-56.55q0-7.35,2.24-11.35a7,7,0,0,1,6.39-4q7,0,11.12,9.36T655,325.28q0,14.72-5.27,22.87T634,356.3a26.32,26.32,0,0,1-2.88-.16Z"/><path class="cls-2" d="M42.07,363c-32.48-7-34-56.19-13-71.61s74.41-5.1,74.41-5.1a17.05,17.05,0,0,0-9.28,15.18v92.62a15.74,15.74,0,0,0,.49,4,15.47,15.47,0,0,0,8.79,10.16h-45A13.83,13.83,0,0,0,66,401.57a18.06,18.06,0,0,0,2.15-8.68V369.17S56.39,419.85,3,421.27C3,421.27,42.07,392.46,42.07,363Zm26.06-56.55q0-7.35-2.24-11.35a7,7,0,0,0-6.4-4q-7,0-11.11,9.36T44.3,325.28q0,14.72,5.28,22.87t15.67,8.15a26.59,26.59,0,0,0,2.88-.16Z"/><path class="cls-2" d="M338.74,42.07c7-32.48,56.19-34,71.61-13s5.1,74.41,5.1,74.41a17.05,17.05,0,0,0-15.18-9.28H307.65a15.74,15.74,0,0,0-4,.49,15.47,15.47,0,0,0-10.16,8.79v-45A13.84,13.84,0,0,0,300.13,66a18.06,18.06,0,0,0,8.68,2.15h23.72S281.85,56.39,280.43,3C280.43,3,309.24,42.07,338.74,42.07Zm56.55,26.06q7.35,0,11.35-2.24a7,7,0,0,0,4-6.4q0-7-9.35-11.11T376.42,44.3q-14.71,0-22.86,5.28T345.4,65.25a26.59,26.59,0,0,0,.16,2.88Z"/><path class="cls-2" d="M338.74,657.18c7,32.49,56.19,34,71.61,13.06s5.1-74.41,5.1-74.41a17.06,17.06,0,0,1-15.18,9.27H307.65a16.18,16.18,0,0,1-4-.48,15.47,15.47,0,0,1-10.16-8.79v45a13.84,13.84,0,0,1,6.68-7.55,18.07,18.07,0,0,1,8.68-2.16h23.72s-50.68,11.71-52.1,65.11C280.43,696.26,309.24,657.18,338.74,657.18Zm56.55-26q7.35,0,11.35,2.24a7,7,0,0,1,4,6.39q0,7-9.35,11.12T376.42,655q-14.71,0-22.86-5.27T345.4,634a26.32,26.32,0,0,1,.16-2.88Z"/><path class="cls-1" d="M348.19,283.91a11.9,11.9,0,0,0-1.14-1.77c-2.59-3.34-7.34-4.49-11.32-3.42-5.39,1.44-7.07,6.53-9.15,11.07l-5.81,12.63-8.12,17.66,26.06-21.4,26.05,21.4-10.68-23.25c-1.16-2.52-2.3-5.05-3.46-7.57C349.83,287.56,349.13,285.62,348.19,283.91Z"/><path class="cls-1" d="M349.63,597.82a248.2,248.2,0,1,1,175.5-72.7A246.58,246.58,0,0,1,349.63,597.82Zm0-492.41a244.22,244.22,0,1,0,172.68,71.53A242.66,242.66,0,0,0,349.63,105.41Z"/><polygon class="cls-1" points="104.42 697.25 98.46 697.25 98.46 695.27 102.43 695.27 102.43 691.29 104.42 691.29 104.42 697.25"/><path class="cls-1" d="M88.4,697.25H78.35v-2H88.4Zm-20.11,0H58.24v-2H68.29Zm-20.11,0h-10v-2h10Zm-20.11,0H18v-2H28.07Z"/><polygon class="cls-1" points="7.97 697.25 2 697.25 2 691.29 3.99 691.29 3.99 695.27 7.97 695.27 7.97 697.25"/><path class="cls-1" d="M4,681.39H2v-9.91H4Zm0-19.81H2v-9.9H4Zm0-19.81H2v-9.9H4ZM4,622H2v-9.91H4Zm0-19.81H2v-9.9H4Zm0-19.81H2v-9.9H4Zm0-19.8H2v-9.91H4Zm0-19.81H2v-9.9H4Zm0-19.81H2V513H4Zm0-19.8H2v-9.91H4Zm0-19.81H2v-9.9H4Zm0-19.81H2v-9.9H4Zm0-19.8H2V433.8H4ZM4,423.9H2V414H4Zm0-19.81H2v-9.9H4Zm0-19.8H2v-9.9H4Zm0-19.81H2v-9.9H4Zm0-19.8H2v-9.91H4Zm0-19.81H2V315H4Zm0-19.81H2v-9.9H4Zm0-19.8H2v-9.91H4Zm0-19.81H2v-9.9H4Zm0-19.81H2v-9.9H4Zm0-19.8H2v-9.91H4ZM4,206H2v-9.9H4Zm0-19.81H2v-9.9H4Zm0-19.8H2v-9.91H4Zm0-19.81H2v-9.9H4Zm0-19.8H2V116.9H4ZM4,107H2V97.1H4ZM4,87.19H2v-9.9H4Zm0-19.8H2V57.48H4ZM4,47.58H2v-9.9H4ZM4,27.77H2v-9.9H4Z"/><polygon class="cls-1" points="3.99 7.97 2 7.97 2 2 7.97 2 7.97 3.99 3.99 3.99 3.99 7.97"/><path class="cls-1" d="M88.4,4H78.35V2H88.4ZM68.29,4H58.24V2H68.29ZM48.18,4h-10V2h10ZM28.07,4H18V2H28.07Z"/><polygon class="cls-1" points="104.42 7.97 102.43 7.97 102.43 3.99 98.46 3.99 98.46 2 104.42 2 104.42 7.97"/><path class="cls-1" d="M104.42,681.39h-2v-9.91h2Zm0-19.81h-2v-9.9h2Zm0-19.81h-2v-9.9h2Zm0-19.8h-2v-9.91h2Zm0-19.81h-2v-9.9h2Zm0-19.81h-2v-9.9h2Zm0-19.8h-2v-9.91h2Zm0-19.81h-2v-9.9h2Zm0-19.81h-2V513h2Zm0-19.8h-2v-9.91h2Zm0-19.81h-2v-9.9h2Zm0-19.81h-2v-9.9h2Zm0-19.8h-2V433.8h2Zm0-19.81h-2V414h2Zm0-19.8h-2v-9.91h2Zm0-19.81h-2v-9.9h2Zm0-19.81h-2v-9.9h2Zm0-19.8h-2v-9.91h2Zm0-19.81h-2V315h2Zm0-19.81h-2v-9.9h2Zm0-19.8h-2v-9.91h2Zm0-19.81h-2v-9.9h2Zm0-19.81h-2v-9.9h2Zm0-19.8h-2v-9.91h2Zm0-19.81h-2v-9.9h2Zm0-19.81h-2v-9.9h2Zm0-19.8h-2v-9.91h2Zm0-19.81h-2v-9.9h2Zm0-19.81h-2v-9.9h2Zm0-19.8h-2V97.09h2Zm0-19.81h-2v-9.9h2Zm0-19.8h-2V57.48h2Zm0-19.81h-2v-9.9h2Zm0-19.81h-2v-9.9h2Z"/><polygon class="cls-1" points="697.26 697.25 691.29 697.25 691.29 695.27 695.27 695.27 695.27 691.29 697.26 691.29 697.26 697.25"/><path class="cls-1" d="M681.24,697.25H671.18v-2h10.06Zm-20.11,0H651.07v-2h10.06Zm-20.11,0H631v-2H641Zm-20.11,0H610.85v-2h10.06Z"/><polygon class="cls-1" points="600.8 697.25 594.83 697.25 594.83 691.29 596.82 691.29 596.82 695.27 600.8 695.27 600.8 697.25"/><path class="cls-1" d="M596.82,681.39h-2v-9.91h2Zm0-19.81h-2v-9.9h2Zm0-19.81h-2v-9.9h2Zm0-19.8h-2v-9.91h2Zm0-19.81h-2v-9.9h2Zm0-19.81h-2v-9.9h2Zm0-19.8h-2v-9.91h2Zm0-19.81h-2v-9.9h2Zm0-19.81h-2V513h2Zm0-19.8h-2v-9.91h2Zm0-19.81h-2v-9.9h2Zm0-19.81h-2v-9.9h2Zm0-19.8h-2V433.8h2Zm0-19.81h-2V414h2Zm0-19.81h-2v-9.9h2Zm0-19.8h-2v-9.9h2Zm0-19.81h-2v-9.9h2Zm0-19.8h-2v-9.91h2Zm0-19.81h-2V315h2Zm0-19.81h-2v-9.9h2Zm0-19.8h-2v-9.91h2Zm0-19.81h-2v-9.9h2Zm0-19.81h-2v-9.9h2Zm0-19.8h-2v-9.91h2Zm0-19.81h-2v-9.9h2Zm0-19.81h-2v-9.9h2Zm0-19.8h-2v-9.91h2Zm0-19.81h-2v-9.9h2Zm0-19.8h-2V116.9h2Zm0-19.81h-2V97.1h2Zm0-19.81h-2v-9.9h2Zm0-19.8h-2V57.48h2Zm0-19.81h-2v-9.9h2Zm0-19.81h-2v-9.9h2Z"/><polygon class="cls-1" points="596.82 7.97 594.83 7.97 594.83 2 600.8 2 600.8 3.99 596.82 3.99 596.82 7.97"/><path class="cls-1" d="M681.24,4H671.18V2h10.06ZM661.13,4H651.07V2h10.06ZM641,4H631V2H641ZM620.91,4H610.85V2h10.06Z"/><polygon class="cls-1" points="697.26 7.97 695.27 7.97 695.27 3.99 691.29 3.99 691.29 2 697.26 2 697.26 7.97"/><path class="cls-1" d="M697.26,681.39h-2v-9.91h2Zm0-19.81h-2v-9.9h2Zm0-19.81h-2v-9.9h2Zm0-19.8h-2v-9.91h2Zm0-19.81h-2v-9.9h2Zm0-19.81h-2v-9.9h2Zm0-19.8h-2v-9.91h2Zm0-19.81h-2v-9.9h2Zm0-19.81h-2V513h2Zm0-19.8h-2v-9.91h2Zm0-19.81h-2v-9.9h2Zm0-19.81h-2v-9.9h2Zm0-19.8h-2V433.8h2Zm0-19.81h-2V414h2Zm0-19.8h-2v-9.91h2Zm0-19.81h-2v-9.9h2Zm0-19.81h-2v-9.9h2Zm0-19.8h-2v-9.91h2Zm0-19.81h-2V315h2Zm0-19.81h-2v-9.9h2Zm0-19.8h-2v-9.91h2Zm0-19.81h-2v-9.9h2Zm0-19.81h-2v-9.9h2Zm0-19.8h-2v-9.91h2Zm0-19.81h-2v-9.9h2Zm0-19.81h-2v-9.9h2Zm0-19.8h-2v-9.91h2Zm0-19.81h-2v-9.9h2Zm0-19.81h-2v-9.9h2Zm0-19.8h-2V97.09h2Zm0-19.81h-2v-9.9h2Zm0-19.8h-2V57.48h2Zm0-19.81h-2v-9.9h2Zm0-19.81h-2v-9.9h2Z"/><polygon class="cls-1" points="697.25 104.42 691.29 104.42 691.29 102.43 695.27 102.43 695.27 98.45 697.25 98.45 697.25 104.42"/><path class="cls-1" d="M681.39,104.42h-9.91v-2h9.91Zm-19.81,0h-9.9v-2h9.9Zm-19.81,0h-9.9v-2h9.9Zm-19.8,0h-9.91v-2H622Zm-19.81,0h-9.9v-2h9.9Zm-19.81,0h-9.9v-2h9.9Zm-19.8,0h-9.91v-2h9.91Zm-19.81,0h-9.9v-2h9.9Zm-19.81,0H513v-2h9.9Zm-19.8,0h-9.91v-2h9.91Zm-19.81,0h-9.9v-2h9.9Zm-19.81,0h-9.9v-2h9.9Zm-19.8,0H433.8v-2h9.91Zm-19.81,0H414v-2h9.9Zm-19.81,0h-9.9v-2h9.9Zm-19.8,0h-9.9v-2h9.9Zm-19.81,0h-9.9v-2h9.9Zm-19.8,0h-9.91v-2h9.91Zm-19.81,0H315v-2h9.9Zm-19.81,0h-9.9v-2h9.9Zm-19.8,0h-9.91v-2h9.91Zm-19.81,0h-9.9v-2h9.9Zm-19.81,0h-9.9v-2h9.9Zm-19.8,0h-9.91v-2h9.91Zm-19.81,0h-9.9v-2H206Zm-19.81,0h-9.9v-2h9.9Zm-19.8,0h-9.91v-2h9.91Zm-19.81,0h-9.9v-2h9.9Zm-19.81,0h-9.9v-2h9.9Zm-19.8,0H97.09v-2H107Zm-19.81,0h-9.9v-2h9.9Zm-19.8,0H57.48v-2h9.91Zm-19.81,0h-9.9v-2h9.9Zm-19.81,0h-9.9v-2h9.9Z"/><polygon class="cls-1" points="7.97 104.42 2 104.42 2 98.45 3.99 98.45 3.99 102.43 7.97 102.43 7.97 104.42"/><path class="cls-1" d="M4,88.4H2V78.35H4ZM4,68.29H2V58.24H4ZM4,48.18H2v-10H4ZM4,28.07H2V18H4Z"/><polygon class="cls-1" points="3.99 7.97 2 7.97 2 2 7.97 2 7.97 3.99 3.99 3.99 3.99 7.97"/><path class="cls-1" d="M681.39,4h-9.91V2h9.91ZM661.58,4h-9.9V2h9.9ZM641.77,4h-9.9V2h9.9ZM622,4h-9.91V2H622ZM602.16,4h-9.9V2h9.9ZM582.35,4h-9.9V2h9.9Zm-19.8,0h-9.91V2h9.91ZM542.74,4h-9.9V2h9.9ZM522.93,4H513V2h9.9Zm-19.8,0h-9.91V2h9.91ZM483.32,4h-9.9V2h9.9ZM463.51,4h-9.9V2h9.9Zm-19.8,0H433.8V2h9.91ZM423.9,4H414V2h9.9ZM404.09,4h-9.9V2h9.9Zm-19.8,0h-9.9V2h9.9ZM364.48,4h-9.9V2h9.9Zm-19.8,0h-9.91V2h9.91ZM324.87,4H315V2h9.9ZM305.06,4h-9.9V2h9.9Zm-19.8,0h-9.91V2h9.91ZM265.45,4h-9.9V2h9.9ZM245.64,4h-9.9V2h9.9Zm-19.8,0h-9.91V2h9.91ZM206,4h-9.9V2H206ZM186.22,4h-9.9V2h9.9Zm-19.8,0h-9.91V2h9.91ZM146.61,4h-9.9V2h9.9ZM126.8,4h-9.9V2h9.9ZM107,4H97.09V2H107ZM87.19,4h-9.9V2h9.9ZM67.38,4h-9.9V2h9.9ZM47.58,4h-9.9V2h9.9ZM27.77,4h-9.9V2h9.9Z"/><polygon class="cls-1" points="697.25 7.97 695.27 7.97 695.27 3.99 691.29 3.99 691.29 2 697.25 2 697.25 7.97"/><path class="cls-1" d="M697.25,88.4h-2V78.35h2Zm0-20.11h-2V58.24h2Zm0-20.11h-2v-10h2Zm0-20.11h-2V18h2Z"/><polygon class="cls-1" points="697.25 697.25 691.29 697.25 691.29 695.27 695.27 695.27 695.27 691.29 697.25 691.29 697.25 697.25"/><path class="cls-1" d="M681.39,697.25h-9.91v-2h9.91Zm-19.81,0h-9.9v-2h9.9Zm-19.81,0h-9.9v-2h9.9Zm-19.8,0h-9.91v-2H622Zm-19.81,0h-9.9v-2h9.9Zm-19.81,0h-9.9v-2h9.9Zm-19.8,0h-9.91v-2h9.91Zm-19.81,0h-9.9v-2h9.9Zm-19.81,0H513v-2h9.9Zm-19.8,0h-9.91v-2h9.91Zm-19.81,0h-9.9v-2h9.9Zm-19.81,0h-9.9v-2h9.9Zm-19.8,0H433.8v-2h9.91Zm-19.81,0H414v-2h9.9Zm-19.81,0h-9.9v-2h9.9Zm-19.8,0h-9.9v-2h9.9Zm-19.81,0h-9.9v-2h9.9Zm-19.8,0h-9.91v-2h9.91Zm-19.81,0H315v-2h9.9Zm-19.81,0h-9.9v-2h9.9Zm-19.8,0h-9.91v-2h9.91Zm-19.81,0h-9.9v-2h9.9Zm-19.81,0h-9.9v-2h9.9Zm-19.8,0h-9.91v-2h9.91Zm-19.81,0h-9.9v-2H206Zm-19.81,0h-9.9v-2h9.9Zm-19.8,0h-9.91v-2h9.91Zm-19.81,0h-9.9v-2h9.9Zm-19.81,0h-9.9v-2h9.9Zm-19.8,0H97.09v-2H107Zm-19.81,0h-9.9v-2h9.9Zm-19.8,0H57.48v-2h9.91Zm-19.81,0h-9.9v-2h9.9Zm-19.81,0h-9.9v-2h9.9Z"/><polygon class="cls-1" points="7.97 697.25 2 697.25 2 691.29 3.99 691.29 3.99 695.27 7.97 695.27 7.97 697.25"/><path class="cls-1" d="M4,681.23H2V671.18H4Zm0-20.1H2V651.07H4ZM4,641H2V631H4Zm0-20.11H2v-10H4Z"/><polygon class="cls-1" points="3.99 600.8 2 600.8 2 594.84 7.97 594.84 7.97 596.82 3.99 596.82 3.99 600.8"/><path class="cls-1" d="M681.39,596.82h-9.91v-2h9.91Zm-19.81,0h-9.9v-2h9.9Zm-19.81,0h-9.9v-2h9.9Zm-19.8,0h-9.91v-2H622Zm-19.81,0h-9.9v-2h9.9Zm-19.81,0h-9.9v-2h9.9Zm-19.8,0h-9.91v-2h9.91Zm-19.81,0h-9.9v-2h9.9Zm-19.81,0H513v-2h9.9Zm-19.8,0h-9.91v-2h9.91Zm-19.81,0h-9.9v-2h9.9Zm-19.81,0h-9.9v-2h9.9Zm-19.8,0H433.8v-2h9.91Zm-19.81,0H414v-2h9.9Zm-19.81,0h-9.9v-2h9.9Zm-19.8,0h-9.9v-2h9.9Zm-19.81,0h-9.9v-2h9.9Zm-19.8,0h-9.91v-2h9.91Zm-19.81,0H315v-2h9.9Zm-19.81,0h-9.9v-2h9.9Zm-19.8,0h-9.91v-2h9.91Zm-19.81,0h-9.9v-2h9.9Zm-19.81,0h-9.9v-2h9.9Zm-19.8,0h-9.91v-2h9.91Zm-19.81,0h-9.9v-2H206Zm-19.81,0h-9.9v-2h9.9Zm-19.8,0h-9.91v-2h9.91Zm-19.81,0h-9.9v-2h9.9Zm-19.81,0h-9.9v-2h9.9Zm-19.8,0H97.09v-2H107Zm-19.81,0h-9.9v-2h9.9Zm-19.81,0h-9.9v-2h9.9Zm-19.8,0h-9.9v-2h9.9Zm-19.81,0h-9.9v-2h9.9Z"/><polygon class="cls-1" points="697.25 600.8 695.27 600.8 695.27 596.82 691.29 596.82 691.29 594.84 697.25 594.84 697.25 600.8"/><path class="cls-1" d="M697.25,681.23h-2V671.18h2Zm0-20.1h-2V651.07h2Zm0-20.11h-2V631h2Zm0-20.11h-2v-10h2Z"/><path class="cls-1" d="M181.76,472.79l9.94,12c4,4.83,3.13,8.2.15,10.66a5.75,5.75,0,0,1-7.16.65l-.05,0c1.37,2.63-.13,4.76-2.84,7-.93.77-3,2.51-3.4,4.16l-3.56-4.3a8.4,8.4,0,0,1,2.47-2.86c2.68-2.22,4.29-4.22,1.89-7.12l-5.61-6.77-7.49,6.21-3.3-4Zm.5,17.9c1.85,2.23,3.48,2.84,5.61,1.08s1.67-3.54-.09-5.66l-5.69-6.88-5.53,4.58Z"/><path class="cls-1" d="M204.61,498.76l16.07,14.09-2.54,2.91L206,505.08l-4.09,4.66L213.55,520,211,522.9l-11.69-10.25-4.5,5.13,12.39,10.86-2.55,2.91-16.28-14.27Zm15.07,10.69-3.58-3.14-.29-4.06-4,.27-3.58-3.14,6.81-.54,4.33,3.79Z"/><path class="cls-1" d="M229.2,519.16l18,11.48-2.08,3.26-13.66-8.71-3.34,5.24,13.12,8.35L239.19,542l-13.11-8.35-3.67,5.76,13.9,8.85-2.07,3.26L216,539.92Z"/><path class="cls-1" d="M256.5,535.46l4.73,2.11-8.39,18.76,13.67,6.11-1.66,3.71-18.39-8.21Z"/><path class="cls-1" d="M318.58,564.2c.11-3.73-2.45-6.46-6.76-7.24-4.71-.85-8.74,1.65-9.87,8a8.28,8.28,0,0,0,7,10.08c5.29,1,7.67-2.3,8.57-4.8l5.5,1c-1.57,4.65-5.69,9.24-15.64,7.45-8.79-1.58-11.85-8.29-10.63-15.12s6.34-12.07,15.84-10.36c8.35,1.5,11.91,6.66,11.51,12Z"/><path class="cls-1" d="M335.87,569.7c-.11-6.92,3.86-13.06,14.27-13.23s14.57,5.83,14.69,12.76-3.86,13.06-14.27,13.23S336,576.63,335.87,569.7Zm23.58-.38c-.09-5.38-3.46-9.08-9.25-9s-9,3.91-8.95,9.29,3.46,9.08,9.25,9S359.54,574.7,359.45,569.32Z"/><path class="cls-1" d="M375.26,556.22l7.31-1.47,12.21,17,4.62-20.41,7.23-1.46,4.86,24.14-4.77,1-3.81-20h-.07l-4.91,21.74-4.33.87-12.86-18.16h-.07l4.21,19.91-4.76,1Z"/><path class="cls-1" d="M418.16,545.94l14-5.73c5.62-2.29,8.8.39,10.3,4.06,1.42,3.48.63,7.94-4.48,10l-9.32,3.8,3.54,8.68-4.79,2Zm9.08,8.58,7.7-3.14c2.71-1.11,3.88-2.44,2.77-5.15s-3.38-2.72-5.26-2l-8.05,3.28Z"/><path class="cls-1" d="M454.45,529l5.26-3.17L481.8,541.2l-4.93,3-5.36-3.89-9.92,6,1,6.54-4.79,2.88Zm13.74,8.82-9-6.71,1.7,11.09Z"/><path class="cls-1" d="M476.31,514.73l4.49-3.88L504,515.22l0,0-12.1-14,3.75-3.25,16.12,18.61-4.41,3.81-23.25-4.31-.05,0,12.1,14-3.76,3.25Z"/><path class="cls-1" d="M520.58,493,502,491.57l4-4.87,12.93,1.55-4-12.4,4-4.87,4.91,18,7.24,6-3.29,4Z"/></g></svg>