<svg xmlns="http://www.w3.org/2000/svg" xmlns:xlink="http://www.w3.org/1999/xlink" viewBox="0 0 699.26 699.26"><defs><style>.cls-1{fill:none;}.cls-2{clip-path:url(#clip-path);}.cls-3{fill:#c85751;}</style><clipPath id="clip-path"><rect class="cls-1" width="699.26" height="699.26"/></clipPath></defs><title>Mesa de trabajo 9</title><g id="Capa_3" data-name="Capa 3"><g class="cls-2"><circle class="cls-3" cx="149.61" cy="444.87" r="6.75"/><circle class="cls-3" cx="549.62" cy="444.87" r="6.75"/><path class="cls-3" d="M121.84,405.82l-1.29-7.5,17.74-12L117.56,381l-1.28-7.43,24.79-4.27.85,4.89-20.52,3.33v.07l22.07,5.63.76,4.44-18.91,12.64v.07l20.45-3.75.85,4.9Z"/><path class="cls-3" d="M115.69,353.64l-.1-6.27,25-11.62.1,5.88-6.2,2.75.2,11.84,6.28,2.5.1,5.71ZM130.54,346,120,350.5l10.68,4.2Z"/><path class="cls-3" d="M116.39,327.23l.77-5.23,11.54,1.68L119,309.27l1-7.18,8.42,13.09L145.06,305l-1,7.08-12.83,7.67,3.11,4.76,7.74,1.13-.76,5.23Z"/><path class="cls-3" d="M122.36,292.72l6.25-20.94,3.78,1.13-4.74,15.87,6.08,1.82,4.55-15.24,3.78,1.13-4.54,15.24,6.68,2L149,277.58l3.78,1.13-6.33,21.21Z"/><path class="cls-3" d="M157,246.49l-18.95,2.09,3.12-5.64,13.28-.88-6.33-11.71,3.11-5.65,8.33,17.16,8.39,4.63-2.56,4.63Z"/><path class="cls-3" d="M165.22,226.15c-5.6-4.33-8-11.41-1.47-19.84s14-7.92,19.57-3.59,8,11.41,1.47,19.83S170.83,230.48,165.22,226.15ZM180,207.07c-4.36-3.36-9.46-3-13.08,1.65s-2.65,9.72,1.7,13.08,9.46,3,13.08-1.66S184.31,210.43,180,207.07Z"/><path class="cls-3" d="M180.3,187.65l3.85-3.62,9.74,10.34c2.39,2.54,5.37,5.55,10.4.81s2.21-7.93-.16-10.45l-9.74-10.34,3.85-3.63,9.84,10.45c2.85,3,7.79,8.49-1.09,16.85s-14,3.09-16.85,0Z"/><path class="cls-3" d="M207.11,163.64l13.12-9c5.28-3.64,8.63-2.45,10.87.8a5.9,5.9,0,0,1,0,7.36l0,.05c2.8-1.16,4.84.56,6.89,3.52.7,1,2.29,3.26,3.93,3.84l-4.7,3.24a8.45,8.45,0,0,1-2.68-2.77c-2-2.93-3.92-4.75-7.09-2.57l-7.39,5.11,5.64,8.18-4.35,3Zm18.28,1.09c2.43-1.68,3.21-3.28,1.61-5.6s-3.46-2-5.78-.43l-7.51,5.19,4.16,6Z"/><path class="cls-3" d="M252.09,136.5l12.62-5c9.18-3.63,13.51.73,16.16,7.41,2,5,2.23,12.38-5.73,15.53l-13.8,5.45Zm12.71,17.8,6.92-2.74c3.54-1.39,6.86-4,4.15-10.88-3-7.61-8-6.16-10.76-5.08l-6.65,2.63Z"/><path class="cls-3" d="M286.38,124l15.53-3.51c6.26-1.41,8.92,1,9.79,4.8.72,3.2-.54,5.58-2.72,6.83l0,.07c3,0,4.28,2.32,5.07,5.82.27,1.21.91,3.88,2.22,5l-5.57,1.26a8.69,8.69,0,0,1-1.46-3.58c-.78-3.47-1.86-5.86-5.61-5l-8.77,2,2.19,9.7-5.15,1.16Zm16.54,7.82c2.88-.65,4.2-1.85,3.58-4.6-.58-2.58-2.45-3.17-5.2-2.55l-8.9,2,1.61,7.14Z"/><path class="cls-3" d="M320.74,117.16l21.79-1.7.31,3.94-16.52,1.28.49,6.33,15.85-1.24.31,3.94L327.12,131l.54,7,16.8-1.31.31,3.94-22.07,1.72Z"/><path class="cls-3" d="M361.32,115.9l6.26.39,9.62,25.81-5.88-.37-2.25-6.39-11.81-.74-3,6.07-5.69-.36Zm6.42,15.4-3.63-10.85-5,10.31Z"/><path class="cls-3" d="M387.8,118.15l7.41,1.76,4.07,21,13-17,7.34,1.74-5.8,24.49L409,149l5-20.18-.07,0-13.84,18.09-4.39-1-4.2-22.36-.06,0-4.59,20.28L382,142.64Z"/><path class="cls-3" d="M440.08,133c3.58,1.51,10.41,5.15,8.23,12.15l-5.26-2.22c.6-1.88-.21-4.48-4.27-6.2-3.25-1.37-5.81-1.29-6.74.91-2.31,5.49,17.2,7.48,13,17.42-2.52,6-9.38,4.92-14.32,2.84-8.34-3.52-10.28-8.19-8.32-13.11l5.26,2.22c-1.17,3.14.73,5.62,4.76,7.32,3,1.26,6.1,1.5,7.15-1,2.43-5.75-16.77-7.95-12.76-17.47C429,130.66,434.43,130.61,440.08,133Z"/><path class="cls-3" d="M486.86,171.52c1.73-3.39.58-7-3.06-9.65-4-2.85-8.79-2.31-12.61,3a8.47,8.47,0,0,0,2,12.37c4.47,3.2,8.09,1.24,10-.67l4.64,3.33c-3.5,3.6-9.31,6-17.7,0-7.42-5.32-7.3-12.86-3.17-18.62s11.15-8.35,19.17-2.61c7,5.06,8.06,11.38,5.34,16.15Z"/><path class="cls-3" d="M495.38,182.3c5-5,12.32-6.48,19.86,1s6.11,14.84,1.11,19.85-12.32,6.48-19.86-1S490.38,187.31,495.38,182.3Zm17.08,17c3.88-3.89,4.19-9,0-13.18s-9.31-3.84-13.19,0-4.19,9,0,13.19S508.58,203.2,512.46,199.3Z"/><path class="cls-3" d="M532.25,202.39l4.35,6.25-11,18.4,21-4,4.32,6.19-20.63,14.4-2.85-4.07,17.17-11.73,0-.06L522.24,232l-2.58-3.7,11.77-19.47,0-.06-16.93,12.08-2.85-4.08Z"/><path class="cls-3" d="M556.54,239.74l9.39,19.73-3.57,1.7-7.12-15-5.73,2.72,6.83,14.36-3.56,1.7L546,250.63l-6.3,3,7.24,15.21-3.57,1.7-9.51-20Z"/><path class="cls-3" d="M572.75,293.3l-2.2-9.18,3.84-.92L580,306.71l-3.84.92-2.2-9.18-20.64,4.94-1.23-5.15Z"/><path class="cls-3" d="M581.43,315.39,583,331.24c.61,6.39-2.07,8.73-6,9.11a5.9,5.9,0,0,1-6.43-3.57h-.07c-.35,3-2.84,3.95-6.42,4.3-1.23.11-4,.41-5.27,1.56l-.54-5.68a8.42,8.42,0,0,1,3.73-1c3.54-.33,6-1.1,5.68-4.93l-.85-8.94-9.89.94-.51-5.26Zm-9.85,15.42c.28,2.94,1.3,4.4,4.11,4.13,2.63-.25,3.45-2,3.18-4.83L578,321l-7.29.7Z"/><path class="cls-3" d="M583.94,350.22l-.28,5.28-14.18-.77c-3.49-.19-7.72-.32-8.09,6.58s3.88,7.27,7.32,7.46l14.18.77-.28,5.27L568.29,374c-4.16-.23-11.5-.77-10.84-12.94s8-11.89,12.17-11.66Z"/><path class="cls-3" d="M581.06,386l-4.34,21.42-3.87-.78,3.29-16.24-6.22-1.26-3.15,15.58-3.87-.78,3.15-15.59L559.21,387l-3.34,16.51L552,402.7l4.39-21.7Z"/><path class="cls-3" d="M356.73,325.12a26.45,26.45,0,0,0-14.93-4.39,28.45,28.45,0,0,0-18.34,6.47,43.88,43.88,0,0,0-12.69,17.33,60.52,60.52,0,0,0-4.64,24q0,14.12,4.89,23.56a35.51,35.51,0,0,0,12.61,14.27A29.29,29.29,0,0,0,359,403.92c5.91-4.81,10.19-12.14,12.18-21.54a25.72,25.72,0,0,1-14.88,9.77c-5,1.11-10.6.6-14.93-2.22-6.12-4-8.94-12.38-10.24-20.65h40.06V355.73a40.82,40.82,0,0,0-3.9-18.33A30.68,30.68,0,0,0,356.73,325.12ZM330.46,364c-.26-2.81-.37-5.47-.42-7.8.14-9.12.91-18.21,2.3-22.68q2.32-7.47,6-7.47c7.91,0,6.16,33.14,6.57,38Z"/><path class="cls-3" d="M442.14,355.73a40.82,40.82,0,0,0-3.9-18.33,30.68,30.68,0,0,0-10.53-12.28,26.45,26.45,0,0,0-14.93-4.39,28.4,28.4,0,0,0-18.33,6.47,43.69,43.69,0,0,0-12.69,17.33,60.35,60.35,0,0,0-4.65,24q0,14.12,4.89,23.56a35.58,35.58,0,0,0,12.61,14.27A29.29,29.29,0,0,0,430,403.92c5.91-4.81,10.19-12.14,12.18-21.54a25.72,25.72,0,0,1-14.88,9.77c-5,1.11-10.6.6-14.93-2.22-6.12-4-8.94-12.38-10.23-20.65h40.05ZM401.44,364c-.25-2.81-.37-5.47-.41-7.8.14-9.12.9-18.21,2.29-22.68q2.32-7.47,6-7.47c7.92,0,6.16,33.14,6.58,38Z"/><path class="cls-3" d="M444.84,408.59H483s-6-1.75-6-13.11h0l0-117.91A48.61,48.61,0,0,1,444.17,290c6.54,6.54,6.61,13.79,6.61,13.79v91.71C450.78,406.84,444.84,408.59,444.84,408.59Z"/><path class="cls-3" d="M278,363c32.67-7,34.17-56.51,13.13-72s-74.84-5.13-74.84-5.13a17.14,17.14,0,0,1,9.33,15.26V394.3a15.86,15.86,0,0,1-.49,4.07,15.57,15.57,0,0,1-8.84,10.22h45.29a13.92,13.92,0,0,1-7.59-6.72,18.19,18.19,0,0,1-2.17-8.73V369.28s11.78,51,65.48,52.41C317.3,421.69,278,392.71,278,363Zm-26.2-56.88c0-4.93.74-8.73,2.25-11.42a7,7,0,0,1,6.43-4q7.08,0,11.18,9.41t4.1,25q0,14.81-5.31,23t-15.76,8.2a26.64,26.64,0,0,1-2.89-.16Z"/><path class="cls-3" d="M348.18,283.53a13.5,13.5,0,0,0-1.14-1.78c-2.61-3.35-7.39-4.52-11.39-3.44-5.42,1.45-7.11,6.57-9.21,11.13l-5.84,12.71-8.16,17.76,26.2-21.52,26.21,21.52L354.1,296.53c-1.16-2.54-2.31-5.08-3.48-7.62C349.83,287.21,349.13,285.25,348.18,283.53Z"/><path class="cls-3" d="M349.63,599.75a250.13,250.13,0,1,1,176.86-73.26A248.48,248.48,0,0,1,349.63,599.75Zm0-495.24A245.12,245.12,0,1,0,523,176.3,243.54,243.54,0,0,0,349.63,104.51Z"/><path class="cls-3" d="M180.79,473.5l10,12.07c4,4.86,3.15,8.25.16,10.72a5.81,5.81,0,0,1-7.21.66l-.05,0c1.38,2.64-.13,4.79-2.85,7.05-.94.77-3,2.53-3.43,4.19l-3.58-4.33a8.38,8.38,0,0,1,2.48-2.87c2.7-2.23,4.32-4.25,1.91-7.16l-5.64-6.81-7.53,6.24-3.32-4Zm.51,18c1.86,2.24,3.5,2.86,5.63,1.09s1.69-3.56-.08-5.69L181.12,480l-5.55,4.6Z"/><path class="cls-3" d="M203.77,499.62l16.17,14.17-2.56,2.92L205.12,506l-4.11,4.7L212.77,521l-2.56,2.92-11.76-10.3-4.53,5.16,12.47,10.93-2.56,2.92-16.38-14.36Zm15.16,10.75-3.6-3.15-.29-4.09-4.07.27-3.59-3.15,6.84-.55,4.36,3.81Z"/><path class="cls-3" d="M228.5,520.13l18.14,11.56L244.55,535l-13.75-8.75-3.35,5.26,13.19,8.4-2.08,3.28-13.2-8.4-3.68,5.79,14,8.9-2.09,3.28L215.2,541Z"/><path class="cls-3" d="M256,536.53l4.75,2.12-8.43,18.87L266,563.66l-1.67,3.74-18.49-8.26Z"/><path class="cls-3" d="M318.4,565.44c.11-3.75-2.46-6.51-6.8-7.29-4.74-.85-8.79,1.67-9.93,8a8.33,8.33,0,0,0,7,10.14c5.33,1,7.71-2.32,8.62-4.83l5.53,1c-1.58,4.69-5.72,9.3-15.72,7.5-8.84-1.59-11.93-8.34-10.69-15.21s6.37-12.13,15.93-10.42c8.4,1.51,12,6.7,11.57,12.09Z"/><path class="cls-3" d="M335.79,571c-.11-7,3.88-13.13,14.35-13.31s14.66,5.87,14.77,12.84-3.88,13.13-14.35,13.3S335.9,577.94,335.79,571Zm23.71-.38c-.08-5.41-3.47-9.14-9.3-9s-9.09,3.92-9,9.33,3.48,9.14,9.3,9S359.59,576,359.5,570.59Z"/><path class="cls-3" d="M375.41,557.41l7.34-1.48L395,573.06l4.64-20.53,7.28-1.47,4.88,24.28-4.79,1-3.83-20.1-.07,0-4.94,21.86-4.35.87-12.95-18.26h-.06l4.23,20-4.79,1Z"/><path class="cls-3" d="M418.55,547.07l14.13-5.76c5.65-2.31,8.85.39,10.35,4.09,1.43,3.49.63,8-4.5,10.07l-9.38,3.82,3.56,8.73-4.81,2Zm9.14,8.63,7.73-3.16c2.73-1.11,3.91-2.45,2.8-5.18s-3.4-2.73-5.3-2l-8.09,3.3Z"/><path class="cls-3" d="M455.06,530l5.28-3.19,22.22,15.51-4.95,3-5.4-3.91-10,6,1,6.58-4.81,2.9Zm13.81,8.88-9-6.76,1.7,11.16Z"/><path class="cls-3" d="M477,515.68l4.51-3.9,23.31,4.4.05,0-12.17-14.05,3.78-3.27,16.21,18.72-4.43,3.84L484.91,517l-.05.05,12.17,14-3.78,3.27Z"/><path class="cls-3" d="M521.57,493.79l-18.71-1.41,4-4.89,13,1.56-4-12.48,4-4.89,4.93,18.1,7.28,6-3.31,4Z"/></g></g></svg>