<svg xmlns="http://www.w3.org/2000/svg" xmlns:xlink="http://www.w3.org/1999/xlink" viewBox="0 0 699.26 699.26"><defs><style>.cls-1{fill:none;}.cls-2{clip-path:url(#clip-path);}.cls-3{fill:#c85751;}</style><clipPath id="clip-path"><rect class="cls-1" width="699.26" height="100vh"/></clipPath></defs><title>Mesa de trabajo 9</title><g id="Capa_3" data-name="Capa 3"><g class="cls-2"><path class="cls-3" d="M349.63,427.32a77.69,77.69,0,1,1,77.69-77.69A77.78,77.78,0,0,1,349.63,427.32Zm0-152.38a74.69,74.69,0,1,0,74.69,74.69A74.77,74.77,0,0,0,349.63,274.94Z"/><path class="cls-3" d="M348.57,318.19a3.59,3.59,0,0,0-3.29,2.06,12.09,12.09,0,0,0-1.16,5.85v25.63c.52,0,1,.08,1.49.08a9,9,0,0,0,8.07-4.2q2.71-4.2,2.72-11.79c0-5.32-.7-9.6-2.1-12.81S351,318.19,348.57,318.19Z"/><path class="cls-3" d="M349.63,286.93a62.73,62.73,0,1,0,62.73,62.73A62.73,62.73,0,0,0,349.63,286.93Zm-5.49,71.51v12.23a9.26,9.26,0,0,0,1.11,4.47,7.08,7.08,0,0,0,3.89,3.44H325.93a8,8,0,0,0,4.53-5.23,8.11,8.11,0,0,0,.25-2.08V323.53a8.79,8.79,0,0,0-4.78-7.82s27.56-5.32,38.35,2.63,10,33.31-6.73,36.91c0,15.2,20.14,30.05,20.14,30.05C350.17,384.56,344.14,358.44,344.14,358.44Z"/></g></g></svg>