<svg xmlns="http://www.w3.org/2000/svg" xmlns:xlink="http://www.w3.org/1999/xlink" viewBox="0 0 699.26 699.26"><defs><style>.cls-1{fill:none;}.cls-2{clip-path:url(#clip-path);}.cls-3{fill:#dec896;}</style><clipPath id="clip-path"><rect class="cls-1" width="699.26" height="699.26"/></clipPath></defs><title>Mesa de trabajo 9</title><g id="Capa_3" data-name="Capa 3"><g class="cls-2"><path class="cls-3" d="M364.43,360.12c31.3-6.73,32.73-54.13,12.58-69s-71.68-4.92-71.68-4.92a16.43,16.43,0,0,1,8.93,14.62v89.23a15.45,15.45,0,0,1-.46,3.89,14.92,14.92,0,0,1-8.47,9.79h43.38a13.31,13.31,0,0,1-7.27-6.43,17.42,17.42,0,0,1-2.08-8.37V366.1s11.28,48.82,62.72,50.19C402.08,416.29,364.43,388.54,364.43,360.12Zm-25.09-54.48q0-7.08,2.15-10.93a6.74,6.74,0,0,1,6.16-3.85q6.78,0,10.71,9t3.93,23.95q0,14.18-5.09,22t-15.09,7.85a26.86,26.86,0,0,1-2.77-.15Z"/><path class="cls-3" d="M349.63,484c-74.07,0-134.34-60.26-134.34-134.33s60.27-134.34,134.34-134.34S484,275.56,484,349.63,423.7,484,349.63,484Zm0-266.67c-73,0-132.34,59.37-132.34,132.34S276.66,482,349.63,482,482,422.6,482,349.63,422.6,217.29,349.63,217.29Z"/><path class="cls-3" d="M349.63,470.58A120.89,120.89,0,1,1,470.52,349.69,121,121,0,0,1,349.63,470.58Zm0-239.78A118.89,118.89,0,1,0,468.52,349.69,119,119,0,0,0,349.63,230.8Z"/></g></g></svg>