<svg xmlns="http://www.w3.org/2000/svg" xmlns:xlink="http://www.w3.org/1999/xlink" viewBox="0 0 699.26 699.26"><defs><style>.cls-1{fill:none;}.cls-2{clip-path:url(#clip-path);}.cls-3{fill:#dec896;}</style><clipPath id="clip-path"><rect class="cls-1" width="699.26" height="699.26"/></clipPath></defs><title>Mesa de trabajo 9</title><g id="Capa_3" data-name="Capa 3"><g class="cls-2"><path class="cls-3" d="M370.78,364.61c44.71-9.61,46.76-77.33,18-98.55s-102.4-7-102.4-7a23.48,23.48,0,0,1,12.76,20.88V407.39a22.23,22.23,0,0,1-.67,5.57,21.28,21.28,0,0,1-12.09,14h62a19,19,0,0,1-10.4-9.18,25,25,0,0,1-3-11.95V373.15s16.11,69.75,89.6,71.71C424.56,444.86,370.78,405.21,370.78,364.61Zm-35.86-77.83q0-10.11,3.08-15.62t8.81-5.5q9.68,0,15.29,12.87t5.61,34.22q0,20.25-7.26,31.47t-21.56,11.22a37,37,0,0,1-4-.22Z"/><circle class="cls-3" cx="198.35" cy="421.75" r="5.1"/><circle class="cls-3" cx="500.89" cy="421.75" r="5.1"/><path class="cls-3" d="M177.32,392.11l-1-5.67,13.43-9.07-15.68-4-1-5.63,18.76-3.22.64,3.7L177,370.72v0L193.69,375l.58,3.36L180,388V388l15.48-2.83.64,3.71Z"/><path class="cls-3" d="M172.69,352.72l-.08-4.75,18.89-8.8.08,4.46-4.69,2.07.15,9,4.75,1.89.08,4.32ZM183.93,347l-8,3.39,8.08,3.17Z"/><path class="cls-3" d="M173.24,332.71l.57-4,8.73,1.28-7.32-10.9.8-5.44,6.36,9.9,12.54-7.7-.78,5.36-9.71,5.8,2.36,3.6,5.85.86-.58,3.95Z"/><path class="cls-3" d="M177.75,306.61l4.73-15.84,2.86.86-3.58,12,4.59,1.37,3.44-11.53,2.86.86-3.43,11.52,5.06,1.51,3.64-12.21,2.86.85L196,312.06Z"/><path class="cls-3" d="M204,271.65l-14.33,1.58L192,269l10-.66-4.78-8.85,2.36-4.27,6.28,13,6.35,3.51-1.94,3.5Z"/><path class="cls-3" d="M210.19,256.27c-4.24-3.27-6-8.63-1.11-15s10.56-6,14.8-2.72,6,8.63,1.11,15S214.43,259.55,210.19,256.27Zm11.15-14.43c-3.3-2.54-7.16-2.29-9.9,1.25s-2,7.35,1.29,9.89,7.16,2.29,9.89-1.25S224.63,244.38,221.34,241.84Z"/><path class="cls-3" d="M221.6,227.18l2.91-2.74,7.36,7.82c1.81,1.92,4.06,4.2,7.87.62s1.67-6-.12-7.91l-7.36-7.82,2.91-2.74,7.43,7.9c2.16,2.29,5.9,6.42-.82,12.74s-10.57,2.34-12.75,0Z"/><path class="cls-3" d="M241.9,209l9.91-6.84c4-2.76,6.54-1.85,8.23.61a4.45,4.45,0,0,1,0,5.56l0,0c2.11-.87,3.65.42,5.2,2.66.53.77,1.73,2.47,3,2.91l-3.55,2.45a6.4,6.4,0,0,1-2-2.1c-1.53-2.22-3-3.59-5.36-1.94l-5.59,3.86,4.27,6.19-3.3,2.27Zm13.81.83c1.85-1.27,2.44-2.49,1.23-4.24s-2.62-1.54-4.37-.32l-5.69,3.92,3.15,4.56Z"/><path class="cls-3" d="M275.88,188.52l9.55-3.78c6.94-2.74,10.21.55,12.21,5.61,1.5,3.79,1.7,9.36-4.33,11.74l-10.43,4.12ZM285.5,202l5.23-2.07c2.68-1.06,5.18-3.05,3.14-8.23-2.28-5.75-6.06-4.66-8.14-3.84l-5,2Z"/><path class="cls-3" d="M301.82,179l11.75-2.65c4.73-1.06,6.75.72,7.41,3.63a4.48,4.48,0,0,1-2.06,5.17v.05c2.29,0,3.24,1.76,3.84,4.41.2.91.68,2.93,1.67,3.8l-4.21,1a6.43,6.43,0,0,1-1.1-2.7c-.59-2.63-1.41-4.44-4.25-3.8l-6.62,1.49,1.65,7.34-3.9.88ZM314.33,185c2.19-.5,3.18-1.41,2.71-3.48s-1.85-2.4-3.93-1.93l-6.73,1.52,1.22,5.4Z"/><path class="cls-3" d="M327.78,173.89l16.48-1.29.23,3-12.49,1,.37,4.78,12-.94.23,3-12,.94.41,5.26,12.7-1,.23,3-16.69,1.31Z"/><path class="cls-3" d="M358.47,172.94l4.73.3,7.28,19.51-4.45-.27-1.7-4.84-8.93-.55-2.27,4.58-4.3-.27Zm4.85,11.65-2.74-8.21-3.8,7.8Z"/><path class="cls-3" d="M378.49,174.64l5.6,1.33,3.08,15.9L397,179l5.55,1.32-4.38,18.53-3.66-.87,3.78-15.27h-.05L387.77,196.4l-3.32-.79-3.17-16.91,0,0L377.76,194l-3.66-.87Z"/><path class="cls-3" d="M418,185.86c2.7,1.14,7.87,3.9,6.22,9.19l-4-1.68c.46-1.42-.16-3.39-3.23-4.68-2.45-1-4.38-1-5.09.68-1.75,4.15,13,5.66,9.84,13.18-1.91,4.52-7.1,3.72-10.83,2.14-6.31-2.66-7.77-6.2-6.29-9.91l4,1.68c-.89,2.37.55,4.25,3.59,5.53,2.26,1,4.62,1.14,5.41-.75,1.84-4.35-12.68-6-9.64-13.21C409.64,184.1,413.74,184.06,418,185.86Z"/><path class="cls-3" d="M453.38,215c1.32-2.57.44-5.33-2.31-7.3-3-2.16-6.65-1.75-9.54,2.28a6.4,6.4,0,0,0,1.53,9.35,5.46,5.46,0,0,0,7.57-.5l3.51,2.52c-2.64,2.72-7,4.56-13.39,0-5.61-4-5.52-9.73-2.4-14.09s8.44-6.32,14.5-2c5.33,3.82,6.1,8.6,4,12.21Z"/><path class="cls-3" d="M459.82,223.12c3.78-3.8,9.31-4.91,15,.77s4.62,11.22.84,15-9.31,4.9-15-.78S456,226.91,459.82,223.12ZM472.74,236c2.93-2.95,3.17-6.81,0-10s-7-2.91-10,0-3.17,6.81,0,10S469.8,238.92,472.74,236Z"/><path class="cls-3" d="M487.71,238.3,491,243,482.72,257l15.89-3,3.27,4.68-15.6,10.9-2.16-3.08,13-8.88,0,0-16.93,3.24-1.95-2.8,8.89-14.74,0,0-12.8,9.14-2.16-3.08Z"/><path class="cls-3" d="M506.07,266.52l7.11,14.92-2.7,1.28-5.38-11.31-4.34,2.06,5.17,10.86-2.69,1.28-5.17-10.85L493.3,277l5.48,11.5-2.69,1.29-7.2-15.12Z"/><path class="cls-3" d="M518.35,307l-1.66-6.94,2.9-.7,4.27,17.78-2.9.7-1.67-7-15.6,3.75-.94-3.89Z"/><path class="cls-3" d="M524.94,323.71l1.15,12c.46,4.83-1.56,6.6-4.53,6.89a4.47,4.47,0,0,1-4.87-2.7h-.05c-.26,2.27-2.15,3-4.86,3.25-.92.09-3,.32-4,1.19l-.41-4.3a6.42,6.42,0,0,1,2.82-.75c2.68-.26,4.57-.85,4.3-3.74l-.65-6.76-7.49.72-.38-4Zm-7.45,11.67c.21,2.23,1,3.34,3.11,3.13s2.61-1.54,2.41-3.66l-.66-6.87-5.52.53Z"/><path class="cls-3" d="M526.85,350l-.22,4-10.72-.57c-2.64-.15-5.84-.24-6.12,5s2.94,5.49,5.55,5.63l10.72.58-.21,4L515,368.06c-3.15-.17-8.7-.57-8.21-9.78s6-9,9.21-8.82Z"/><path class="cls-3" d="M524.68,377.09l-3.27,16.2-2.93-.59L521,380.42l-4.7-.95-2.38,11.78-2.93-.59,2.38-11.78-5.17-1.05-2.52,12.49-2.93-.59L506,373.32Z"/><path class="cls-3" d="M349.63,541.61c-105.86,0-192-86.12-192-192s86.12-192,192-192,192,86.12,192,192S455.49,541.61,349.63,541.61Zm0-381c-104.21,0-189,84.77-189,189s84.77,189,189,189,189-84.78,189-189S453.83,160.65,349.63,160.65Z"/><path class="cls-3" d="M222.25,443.83l7.6,9.11c3.05,3.66,2.39,6.23.14,8.11a4.39,4.39,0,0,1-5.45.51l0,0c1.05,2-.08,3.62-2.14,5.33-.7.59-2.26,1.92-2.58,3.18l-2.72-3.27a6.39,6.39,0,0,1,1.88-2.17c2-1.7,3.25-3.23,1.42-5.42l-4.29-5.14-5.68,4.74-2.52-3Zm.43,13.62c1.41,1.69,2.65,2.15,4.27.81s1.26-2.7-.08-4.31l-4.35-5.21-4.19,3.49Z"/><path class="cls-3" d="M239.65,463.49l12.27,10.68L250,476.38l-9.3-8.09-3.1,3.56,8.92,7.77-1.93,2.21-8.92-7.77L232.25,478l9.45,8.23-1.93,2.22-12.42-10.82Zm11.49,8.09-2.73-2.37-.23-3.09-3.07.21L242.38,464l5.18-.43,3.3,2.88Z"/><path class="cls-3" d="M258.35,478.92l13.74,8.69-1.57,2.48L260.1,483.5l-2.52,4,10,6.32L266,496.3,256,490l-2.78,4.39,10.59,6.7-1.57,2.48-13.91-8.8Z"/><path class="cls-3" d="M279.12,491.24l3.59,1.59-6.34,14.29,10.4,4.62-1.26,2.83-14-6.22Z"/><path class="cls-3" d="M326.29,513c.08-2.84-1.87-4.91-5.15-5.5-3.59-.64-6.64,1.27-7.5,6.07a6.31,6.31,0,0,0,5.33,7.66,5.39,5.39,0,0,0,6.51-3.66l4.18.74c-1.19,3.55-4.31,7-11.88,5.69-6.68-1.18-9-6.29-8.1-11.48s4.8-9.19,12-7.9c6.35,1.13,9.06,5,8.76,9.12Z"/><path class="cls-3" d="M339.35,517.12c-.09-5.27,2.93-9.93,10.85-10.06s11.08,4.43,11.17,9.7-2.93,9.94-10.85,10.07S339.44,522.39,339.35,517.12Zm17.93-.29c-.07-4.09-2.63-6.9-7-6.83s-6.88,3-6.81,7.06,2.63,6.9,7,6.83S357.35,520.92,357.28,516.83Z"/><path class="cls-3" d="M369.25,506.85l5.55-1.12,9.31,12.94,3.5-15.53,5.5-1.11,3.71,18.36-3.63.73-2.91-15.2h0l-3.72,16.54-3.3.67-9.79-13.81h-.06l3.22,15.13-3.63.74Z"/><path class="cls-3" d="M401.82,499l10.68-4.35c4.27-1.75,6.69.3,7.83,3.09s.48,6-3.4,7.62l-7.09,2.89,2.69,6.6-3.64,1.49Zm6.91,6.53,5.85-2.39c2.06-.84,2.95-1.85,2.11-3.92s-2.57-2.06-4-1.48l-6.12,2.5Z"/><path class="cls-3" d="M429.37,486.12l4-2.41,16.8,11.73-3.75,2.26-4.08-3-7.55,4.55.74,5-3.64,2.19Zm10.44,6.71L433,487.72l1.29,8.44Z"/><path class="cls-3" d="M445.92,475.36l3.41-2.95L467,475.74l0,0-9.2-10.63,2.86-2.48,12.26,14.17-3.36,2.9-17.69-3.29,0,0,9.2,10.63-2.85,2.47Z"/><path class="cls-3" d="M479.57,458.87l-14.15-1.08,3.05-3.7,9.84,1.19-3-9.44,3.06-3.7,3.72,13.7,5.5,4.54-2.51,3Z"/></g></g></svg>