<svg xmlns="http://www.w3.org/2000/svg" xmlns:xlink="http://www.w3.org/1999/xlink" viewBox="0 0 699.26 699.26"><defs><style>.cls-1{fill:none;}.cls-2{clip-path:url(#clip-path);}.cls-3{fill:#c85751;}</style><clipPath id="clip-path"><rect class="cls-1" width="699.26" height="699.26"/></clipPath></defs><title>Mesa de trabajo 9</title><g id="Capa_3" data-name="Capa 3"><g class="cls-2"><path class="cls-3" d="M364.43,360.12c31.3-6.73,32.73-54.13,12.58-69s-71.68-4.92-71.68-4.92a16.43,16.43,0,0,1,8.93,14.62v89.23a15.45,15.45,0,0,1-.46,3.89,14.92,14.92,0,0,1-8.47,9.79h43.38a13.31,13.31,0,0,1-7.27-6.43,17.42,17.42,0,0,1-2.08-8.37V366.1s11.28,48.82,62.72,50.19C402.08,416.29,364.43,388.54,364.43,360.12Zm-25.09-54.48q0-7.08,2.15-10.93a6.74,6.74,0,0,1,6.16-3.85q6.78,0,10.71,9t3.93,23.95q0,14.18-5.09,22t-15.09,7.85a26.86,26.86,0,0,1-2.77-.15Z"/><path class="cls-3" d="M349.63,484.46c-74.35,0-134.84-60.49-134.84-134.83S275.28,214.8,349.63,214.8s134.83,60.48,134.83,134.83S424,484.46,349.63,484.46Zm0-266.66c-72.7,0-131.84,59.13-131.84,131.83s59.14,131.83,131.84,131.83,131.83-59.14,131.83-131.83S422.32,217.8,349.63,217.8Z"/><path class="cls-3" d="M349.63,471.08A121.39,121.39,0,1,1,471,349.69,121.53,121.53,0,0,1,349.63,471.08Zm0-239.78A118.39,118.39,0,1,0,468,349.69,118.52,118.52,0,0,0,349.63,231.3Z"/></g></g></svg>