<svg xmlns="http://www.w3.org/2000/svg" width="140.014" height="140.014" viewBox="0 0 140.014 140.014">
  <g id="Grupo_210" data-name="Grupo 210" transform="translate(423.609 -1252.356)">
    <path id="Trazado_688" data-name="Trazado 688" d="M-263.7,1389.685c16.26-3.5,17.007-28.126,6.534-35.845s-37.243-2.553-37.243-2.553a8.536,8.536,0,0,1,4.641,7.6v46.361a7.967,7.967,0,0,1-.243,2.024,7.74,7.74,0,0,1-4.4,5.083h22.54a6.906,6.906,0,0,1-3.78-3.341,9.064,9.064,0,0,1-1.077-4.346V1392.79s5.86,25.369,32.588,26.082C-244.138,1418.872-263.7,1404.451-263.7,1389.685Zm-13.041-28.307a11.772,11.772,0,0,1,1.121-5.682,3.5,3.5,0,0,1,3.2-2q3.521,0,5.563,4.682t2.041,12.446q0,7.364-2.641,11.445a8.737,8.737,0,0,1-7.844,4.082,13.554,13.554,0,0,1-1.441-.081Z" transform="translate(-82.21 -61.873)" fill="#dec896"/>
    <circle id="Elipse_941" data-name="Elipse 941" cx="1.856" cy="1.856" r="1.856" transform="translate(-410.479 1346.737)" fill="#dec896"/>
    <circle id="Elipse_942" data-name="Elipse 942" cx="1.856" cy="1.856" r="1.856" transform="translate(-300.446 1346.737)" fill="#dec896"/>
    <g id="Grupo_204" data-name="Grupo 204" transform="translate(-417.984 1257.978)">
      <g id="Grupo_203" data-name="Grupo 203">
        <path id="Trazado_689" data-name="Trazado 689" d="M-406.107,1469.759l-.355-2.064,4.882-3.3-5.7-1.459-.352-2.045,6.822-1.174.232,1.347-5.648.913,0,.019,6.072,1.552.21,1.223-5.207,3.474,0,.019,5.628-1.028.232,1.347Z" transform="translate(407.818 -1389.921)" fill="#dec896"/>
        <path id="Trazado_690" data-name="Trazado 690" d="M-408.114,1439.31l-.029-1.726,6.871-3.2.027,1.619-1.7.756.055,3.258,1.728.689.027,1.571Zm4.086-2.1-2.9,1.232,2.938,1.153Z" transform="translate(408.143 -1373.802)" fill="#dec896"/>
        <path id="Trazado_691" data-name="Trazado 691" d="M-407.519,1415.821l.21-1.439,3.175.464-2.663-3.965.289-1.976,2.315,3.6,4.563-2.8-.285,1.947-3.531,2.109.857,1.31,2.129.312-.21,1.439Z" transform="translate(407.746 -1357.59)" fill="#dec896"/>
        <path id="Trazado_692" data-name="Trazado 692" d="M-403,1391.744l1.72-5.761,1.041.311-1.3,4.368,1.673.5,1.251-4.191,1.041.311-1.251,4.19,1.84.549,1.326-4.442,1.041.311-1.741,5.836Z" transform="translate(404.873 -1343.004)" fill="#dec896"/>
        <path id="Trazado_693" data-name="Trazado 693" d="M-385.884,1356.383l-5.213.574.858-1.552,3.654-.24-1.741-3.222.858-1.552,2.287,4.719,2.307,1.276-.7,1.273Z" transform="translate(397.297 -1320.358)" fill="#dec896"/>
        <path id="Trazado_694" data-name="Trazado 694" d="M-373.158,1338.735c-1.542-1.191-2.194-3.14-.4-5.457s3.84-2.181,5.382-.989,2.194,3.14.4,5.457S-371.616,1339.927-373.158,1338.735Zm4.054-5.249a2.39,2.39,0,0,0-3.6.456,2.39,2.39,0,0,0,.469,3.6,2.39,2.39,0,0,0,3.6-.456A2.39,2.39,0,0,0-369.1,1333.486Z" transform="translate(386.825 -1308.304)" fill="#dec896"/>
        <path id="Trazado_695" data-name="Trazado 695" d="M-359.153,1314.264l1.059-1,2.677,2.845c.658.7,1.476,1.526,2.859.224s.608-2.183-.043-2.875l-2.677-2.845,1.059-1,2.7,2.874c.784.833,2.144,2.335-.3,4.634s-3.845.85-4.636.01Z" transform="translate(376.971 -1294.415)" fill="#dec896"/>
        <path id="Trazado_696" data-name="Trazado 696" d="M-338.859,1298.792l3.608-2.489c1.453-1,2.375-.672,2.992.221a1.623,1.623,0,0,1,.005,2.023l.011.016c.769-.319,1.331.153,1.892.968a2.9,2.9,0,0,0,1.082,1.056l-1.293.892a2.34,2.34,0,0,1-.738-.763c-.556-.806-1.078-1.307-1.948-.706l-2.035,1.4,1.553,2.251-1.2.826Zm5.026.3c.67-.463.884-.9.443-1.543-.413-.6-.95-.558-1.589-.117l-2.067,1.426,1.145,1.661Z" transform="translate(364.058 -1285.55)" fill="#dec896"/>
        <path id="Trazado_697" data-name="Trazado 697" d="M-304.872,1280.695l3.471-1.373c2.524-1,3.717.2,4.444,2.038.545,1.379.616,3.4-1.574,4.271l-3.8,1.5Zm3.5,4.893,1.9-.753c.974-.384,1.886-1.11,1.141-2.994-.827-2.092-2.2-1.694-2.959-1.395l-1.83.723Z" transform="translate(342.432 -1274.907)" fill="#dec896"/>
        <path id="Trazado_698" data-name="Trazado 698" d="M-278.931,1272.371l4.273-.964c1.721-.388,2.454.262,2.693,1.321a1.621,1.621,0,0,1-.749,1.878l0,.019c.833-.009,1.177.639,1.395,1.6a2.9,2.9,0,0,0,.61,1.383l-1.532.345a2.326,2.326,0,0,1-.4-.983c-.216-.955-.513-1.613-1.544-1.381l-2.411.544.6,2.666-1.418.32Zm4.55,2.153c.794-.179,1.157-.51.986-1.266-.16-.709-.674-.871-1.43-.7l-2.449.552.444,1.967Z" transform="translate(325.926 -1270.028)" fill="#dec896"/>
        <path id="Trazado_699" data-name="Trazado 699" d="M-252.976,1268.283l5.993-.469.084,1.083-4.543.356.136,1.74,4.36-.341.085,1.083-4.36.342.15,1.914,4.621-.362.085,1.083-6.071.475Z" transform="translate(309.411 -1267.814)" fill="#dec896"/>
        <path id="Trazado_700" data-name="Trazado 700" d="M-228.422,1268.152l1.722.108,2.646,7.1-1.616-.1-.619-1.758-3.25-.2-.823,1.668-1.567-.1Zm1.765,4.238-1-2.986-1.381,2.837Z" transform="translate(296.019 -1268.029)" fill="#dec896"/>
        <path id="Trazado_701" data-name="Trazado 701" d="M-205.058,1269.85l2.038.483,1.121,5.786,3.578-4.674,2.019.479-1.6,6.738-1.33-.315,1.375-5.554-.019,0-3.81,4.977-1.208-.286-1.154-6.152-.019,0-1.262,5.581-1.331-.315Z" transform="translate(279.936 -1269.109)" fill="#dec896"/>
        <path id="Trazado_702" data-name="Trazado 702" d="M-171.583,1280.344c.982.414,2.863,1.418,2.262,3.342l-1.447-.611c.166-.519-.058-1.234-1.174-1.705-.893-.377-1.6-.358-1.852.25-.637,1.509,4.729,2.057,3.577,4.791-.693,1.643-2.58,1.353-3.938.78-2.3-.968-2.826-2.254-2.288-3.606l1.447.61c-.322.864.2,1.547,1.308,2.014.822.346,1.678.413,1.968-.275.667-1.581-4.612-2.187-3.508-4.8C-174.627,1279.7-173.138,1279.688-171.583,1280.344Z" transform="translate(260.837 -1275.521)" fill="#dec896"/>
        <path id="Trazado_703" data-name="Trazado 703" d="M-138.292,1302.476a2.024,2.024,0,0,0-.841-2.655c-1.1-.785-2.419-.636-3.47.83a2.329,2.329,0,0,0,.554,3.4,1.991,1.991,0,0,0,2.756-.183l1.277.915c-.962.992-2.562,1.659-4.87,0a3.44,3.44,0,0,1-.872-5.123c1.135-1.584,3.067-2.3,5.273-.716,1.938,1.39,2.218,3.129,1.469,4.441Z" transform="translate(240.41 -1287.061)" fill="#dec896"/>
        <path id="Trazado_704" data-name="Trazado 704" d="M-122.932,1316.314c1.374-1.381,3.388-1.784,5.463.281s1.682,4.081.308,5.462-3.389,1.783-5.463-.281S-124.307,1317.695-122.932,1316.314Zm4.7,4.677a2.389,2.389,0,0,0,0-3.626,2.389,2.389,0,0,0-3.626.015,2.389,2.389,0,0,0,0,3.625A2.389,2.389,0,0,0-118.233,1320.991Z" transform="translate(227.39 -1297.941)" fill="#dec896"/>
        <path id="Trazado_705" data-name="Trazado 705" d="M-102.977,1333.516l1.2,1.717-3.014,5.065,5.781-1.107,1.189,1.7-5.675,3.967-.783-1.121,4.723-3.23-.011-.016-6.156,1.179-.711-1.018,3.234-5.36-.011-.016-4.656,3.326-.784-1.121Z" transform="translate(217.578 -1309.62)" fill="#dec896"/>
        <path id="Trazado_706" data-name="Trazado 706" d="M-85.617,1361.729l2.584,5.427-.98.467-1.96-4.115-1.576.751,1.88,3.948-.98.467-1.88-3.948-1.733.825,1.993,4.184-.98.467-2.618-5.5Z" transform="translate(206.899 -1327.572)" fill="#dec896"/>
        <path id="Trazado_707" data-name="Trazado 707" d="M-72.329,1397.359l-.607-2.527,1.056-.254,1.554,6.467-1.056.254-.607-2.527-5.675,1.364-.34-1.414Z" transform="translate(198.077 -1348.474)" fill="#dec896"/>
        <path id="Trazado_708" data-name="Trazado 708" d="M-67.874,1418.926l.42,4.362c.169,1.757-.568,2.4-1.649,2.506a1.622,1.622,0,0,1-1.769-.979l-.02,0c-.1.828-.782,1.088-1.766,1.183a2.9,2.9,0,0,0-1.449.432l-.151-1.563a2.333,2.333,0,0,1,1.026-.275c.975-.094,1.665-.306,1.564-1.358l-.237-2.461-2.721.262-.139-1.447Zm-2.708,4.244c.078.81.36,1.212,1.132,1.138.724-.07.949-.559.875-1.331l-.24-2.5-2.007.193Z" transform="translate(196.015 -1363.966)" fill="#dec896"/>
        <path id="Trazado_709" data-name="Trazado 709" d="M-66.675,1444.852l-.077,1.452-3.9-.209c-.958-.052-2.121-.084-2.223,1.812s1.067,2,2.016,2.049l3.9.209-.078,1.452-3.939-.212c-1.142-.061-3.163-.209-2.983-3.558s2.195-3.27,3.346-3.208Z" transform="translate(195.511 -1380.317)" fill="#dec896"/>
        <path id="Trazado_710" data-name="Trazado 710" d="M-70.053,1469.906l-1.189,5.891-1.064-.215.9-4.466-1.71-.345-.866,4.286-1.064-.215.865-4.286-1.881-.38-.917,4.542-1.064-.215,1.2-5.967Z" transform="translate(198.101 -1395.533)" fill="#dec896"/>
      </g>
    </g>
    <path id="Trazado_711" data-name="Trazado 711" d="M-353.6,1392.37a70.086,70.086,0,0,1-70.007-70.007,70.086,70.086,0,0,1,70.007-70.007,70.087,70.087,0,0,1,70.007,70.007A70.086,70.086,0,0,1-353.6,1392.37Zm0-138.559a68.63,68.63,0,0,0-68.552,68.552,68.629,68.629,0,0,0,68.552,68.552,68.63,68.63,0,0,0,68.552-68.552A68.63,68.63,0,0,0-353.6,1253.811Z" transform="translate(0 0)" fill="#dec896"/>
    <g id="Grupo_205" data-name="Grupo 205" transform="translate(-405.159 1356.012)">
      <path id="Trazado_712" data-name="Trazado 712" d="M-367.652,1539.045l2.762,3.311c1.112,1.333.872,2.266.052,2.951a1.6,1.6,0,0,1-1.981.186l-.015.013c.381.725-.031,1.318-.778,1.941a2.846,2.846,0,0,0-.938,1.154l-.99-1.187a2.3,2.3,0,0,1,.681-.792c.74-.617,1.183-1.173.517-1.972l-1.558-1.868-2.066,1.723-.917-1.1Zm.155,4.951c.514.616.966.785,1.552.3.549-.458.461-.981-.028-1.567l-1.582-1.9-1.524,1.271Z" transform="translate(372.882 -1538.431)" fill="#dec896"/>
      <path id="Trazado_713" data-name="Trazado 713" d="M-348.926,1558.7l4.459,3.885-.7.806-3.381-2.945-1.128,1.295,3.244,2.826-.7.806-3.244-2.826-1.241,1.424,3.438,3-.7.806-4.517-3.935Zm4.178,2.944-.993-.864-.084-1.124-1.117.077-.993-.865,1.882-.157,1.2,1.046Z" transform="translate(360.486 -1550.936)" fill="#dec896"/>
      <path id="Trazado_714" data-name="Trazado 714" d="M-328.774,1574.128l5,3.162-.571.9-3.787-2.4-.918,1.45,3.634,2.3-.571.9-3.634-2.3-1.01,1.6,3.852,2.438-.571.9-5.061-3.2Z" transform="translate(347.133 -1560.754)" fill="#dec896"/>
      <path id="Trazado_715" data-name="Trazado 715" d="M-306.474,1586.448l1.308.581-2.309,5.2,3.784,1.681-.457,1.029-5.091-2.262Z" transform="translate(332.387 -1568.593)" fill="#dec896"/>
      <path id="Trazado_716" data-name="Trazado 716" d="M-265.158,1602.706a1.99,1.99,0,0,0-1.872-2c-1.305-.232-2.416.461-2.727,2.208a2.29,2.29,0,0,0,1.936,2.785,1.959,1.959,0,0,0,2.368-1.332l1.521.271c-.433,1.289-1.569,2.559-4.321,2.069a3.384,3.384,0,0,1-2.948-4.176c.336-1.888,1.747-3.341,4.376-2.873,2.31.411,3.3,1.836,3.188,3.318Z" transform="translate(308.227 -1576.943)" fill="#dec896"/>
      <path id="Trazado_717" data-name="Trazado 717" d="M-241.406,1605.929c-.031-1.916,1.067-3.613,3.946-3.66s4.032,1.613,4.063,3.53-1.066,3.613-3.946,3.659S-241.375,1607.846-241.406,1605.929Zm6.522-.106a2.35,2.35,0,0,0-2.558-2.486,2.35,2.35,0,0,0-2.476,2.568,2.351,2.351,0,0,0,2.558,2.486A2.35,2.35,0,0,0-234.885,1605.823Z" transform="translate(289.225 -1578.66)" fill="#dec896"/>
      <path id="Trazado_718" data-name="Trazado 718" d="M-211.5,1599l2.02-.408,3.383,4.709,1.274-5.649,2-.4,1.347,6.677-1.319.266-1.057-5.528-.019,0-1.355,6.015-1.2.241-3.564-5.023-.019,0,1.169,5.506-1.318.266Z" transform="translate(270.197 -1575.463)" fill="#dec896"/>
      <path id="Trazado_719" data-name="Trazado 719" d="M-178.935,1591.053l3.885-1.585a1.955,1.955,0,0,1,2.848,1.125,2.029,2.029,0,0,1-1.238,2.771l-2.578,1.052.979,2.4-1.324.54Zm2.513,2.374,2.128-.868c.751-.306,1.074-.675.768-1.425a.988.988,0,0,0-1.456-.539l-2.225.907Z" transform="translate(249.474 -1570.365)" fill="#dec896"/>
      <path id="Trazado_720" data-name="Trazado 720" d="M-151.387,1579.8l1.454-.876,6.113,4.267-1.364.822-1.484-1.077-2.745,1.654.267,1.81-1.324.8Zm3.8,2.443-2.478-1.858.468,3.069Z" transform="translate(231.946 -1563.802)" fill="#dec896"/>
      <path id="Trazado_721" data-name="Trazado 721" d="M-134.834,1562.455l1.241-1.074,6.412,1.214.015-.012-3.347-3.867,1.039-.9,4.458,5.151-1.22,1.056-6.434-1.195-.014.012,3.346,3.867-1.039.9Z" transform="translate(221.413 -1550.375)" fill="#dec896"/>
      <path id="Trazado_722" data-name="Trazado 722" d="M-110.193,1543.439l-5.146-.392,1.112-1.346,3.578.432-1.1-3.432,1.112-1.346,1.354,4.98,2,1.653-.912,1.1Z" transform="translate(209.009 -1537.356)" fill="#dec896"/>
    </g>
  </g>
</svg>
