<svg xmlns="http://www.w3.org/2000/svg" xmlns:xlink="http://www.w3.org/1999/xlink" viewBox="0 0 699.26 699.26"><defs><style>.cls-1,.cls-10,.cls-11,.cls-5,.cls-6,.cls-8{fill:none;}.cls-2{clip-path:url(#clip-path);}.cls-12,.cls-3,.cls-4,.cls-7,.cls-9{fill:#dec896;}.cls-4{font-size:35.04px;}.cls-4,.cls-7{font-family:HelveticaNeueLTPro-MdEx, Helvetica Neue LT Pro;}.cls-12,.cls-4,.cls-7,.cls-9{font-weight:500;}.cls-10,.cls-11,.cls-5,.cls-6,.cls-8{stroke:#dec896;stroke-miterlimit:10;}.cls-5{stroke-width:3.98px;}.cls-6{stroke-width:2px;stroke-dasharray:12;}.cls-7{font-size:34.47px;}.cls-8{stroke-width:1.01px;}.cls-9{font-size:10px;}.cls-12,.cls-9{font-family:HelveticaNeueLTPro-MdExO, Helvetica Neue LT Pro;}.cls-11{stroke-width:0.97px;}.cls-12{font-size:14px;}</style><clipPath id="clip-path"><rect class="cls-1" x="2" y="2" width="695.25" height="695.25"/></clipPath></defs><title>normalitzacio</title><g id="Capa_3" data-name="Capa 3"><g class="cls-2"><circle class="cls-3" cx="150.77" cy="444.32" r="6.71"/><circle class="cls-3" cx="27.94" cy="217.2" r="6.71"/><circle class="cls-3" cx="548.45" cy="444.32" r="6.71"/><text class="cls-4" transform="translate(148.23 403.73) rotate(-99.79)">M</text><text class="cls-4" transform="matrix(-0.02, -1, 1, -0.02, 142.24, 364.03)">A</text><text class="cls-4" transform="translate(142.13 333.47) rotate(-81.68)">K</text><text class="cls-4" transform="translate(146.93 302.62) rotate(-73.39)">E</text><text class="cls-4" transform="matrix(0.39, -0.92, 0.92, 0.39, 155.66, 275.16)"> </text><text class="cls-4" transform="matrix(0.48, -0.88, 0.88, 0.48, 161.34, 261.02)">Y</text><text class="cls-4" transform="translate(175.5 235.4) rotate(-52.32)">O</text><text class="cls-4" transform="translate(196.74 208.41) rotate(-43.26)">U</text><text class="cls-4" transform="translate(220.08 186.75) rotate(-34.61)">R</text><text class="cls-4" transform="translate(246.26 169.42) rotate(-28.19)"> </text><text class="cls-4" transform="translate(259.47 161.96) rotate(-21.56)">D</text><text class="cls-4" transform="translate(289.75 150.26) rotate(-12.73)">R</text><text class="cls-4" transform="translate(320.3 143.66) rotate(-4.46)">E</text><text class="cls-4" transform="translate(348.88 141.55) rotate(3.58)">A</text><text class="cls-4" transform="matrix(0.97, 0.23, -0.23, 0.97, 379.3, 143.25)">M</text><text class="cls-4" transform="translate(418.22 153.18) rotate(22.85)">S</text><text class="cls-4" transform="translate(444.6 164.86) rotate(28.96)"> </text><text class="cls-4" transform="matrix(0.81, 0.58, -0.58, 0.81, 458.06, 171.89)">C</text><text class="cls-4" transform="translate(484.86 191.29) rotate(44.87)">O</text><text class="cls-4" transform="translate(509.18 215.45) rotate(55.07)">M</text><text class="cls-4" transform="matrix(0.43, 0.9, -0.9, 0.43, 531.62, 248.79)">E</text><text class="cls-4" transform="translate(543.53 275.01) rotate(70.65)"> </text><text class="cls-4" transform="translate(548.73 289.38) rotate(76.52)">T</text><text class="cls-4" transform="translate(554.93 315.39) rotate(84.53)">R</text><text class="cls-4" transform="matrix(-0.05, 1, -1, -0.05, 557.73, 346.46)">U</text><text class="cls-4" transform="matrix(-0.2, 0.98, -0.98, -0.2, 555.7, 378.24)">E</text><path class="cls-3" d="M356.68,325.27a26.32,26.32,0,0,0-14.84-4.37,28.28,28.28,0,0,0-18.23,6.43A43.66,43.66,0,0,0,311,344.57a60.13,60.13,0,0,0-4.61,23.83q0,14,4.86,23.42A35.16,35.16,0,0,0,323.78,406a29.09,29.09,0,0,0,35.13-2.39c5.88-4.78,10.13-12.07,12.11-21.41a25.67,25.67,0,0,1-14.79,9.71c-5,1.1-10.54.59-14.85-2.21-6.08-3.95-8.88-12.31-10.17-20.53H371V355.7a40.57,40.57,0,0,0-3.88-18.23A30.38,30.38,0,0,0,356.68,325.27Zm-26.11,38.64c-.26-2.8-.37-5.45-.42-7.76.14-9.07.9-18.1,2.29-22.55q2.3-7.43,5.93-7.42c7.87,0,6.13,32.94,6.54,37.73Z"/><path class="cls-3" d="M441.6,355.7a40.7,40.7,0,0,0-3.87-18.23,30.48,30.48,0,0,0-10.48-12.2,26.29,26.29,0,0,0-14.84-4.37,28.28,28.28,0,0,0-18.23,6.43,43.55,43.55,0,0,0-12.61,17.24A60,60,0,0,0,377,368.4q0,14,4.86,23.42A35.23,35.23,0,0,0,394.35,406a29.09,29.09,0,0,0,35.13-2.39c5.88-4.78,10.13-12.07,12.11-21.41a25.67,25.67,0,0,1-14.79,9.71c-5,1.1-10.54.59-14.85-2.21-6.08-3.95-8.88-12.31-10.17-20.53H441.6Zm-40.46,8.21c-.26-2.8-.37-5.45-.42-7.76.14-9.07.9-18.1,2.29-22.55q2.31-7.43,5.93-7.42c7.87,0,6.13,32.94,6.54,37.73Z"/><path class="cls-3" d="M444.28,408.25h37.9s-5.94-1.74-5.94-13h0l0-117.23a48.36,48.36,0,0,1-32.66,12.34c6.5,6.5,6.57,13.71,6.57,13.71v91.18C450.19,406.51,444.28,408.25,444.28,408.25Z"/><path class="cls-3" d="M278.41,363c32.48-7,34-56.19,13-71.61s-74.4-5.1-74.4-5.1a17.05,17.05,0,0,1,9.28,15.18v92.61a15.68,15.68,0,0,1-.49,4,15.47,15.47,0,0,1-8.79,10.16h45a13.8,13.8,0,0,1-7.55-6.68,18.06,18.06,0,0,1-2.15-8.68V369.17s11.7,50.68,65.1,52.1C317.49,421.27,278.41,392.47,278.41,363Zm-26.05-56.55q0-7.35,2.24-11.35a7,7,0,0,1,6.39-4q7,0,11.12,9.35t4.07,24.87q0,14.71-5.27,22.86t-15.67,8.16a26.41,26.41,0,0,1-2.88-.17Z"/><path class="cls-3" d="M348.19,283.92a12.76,12.76,0,0,0-1.14-1.77c-2.59-3.34-7.34-4.49-11.33-3.42-5.38,1.44-7.06,6.53-9.15,11.07l-5.8,12.63-8.12,17.65,26.05-21.39,26.06,21.39-10.69-23.24c-1.16-2.52-2.3-5-3.46-7.57C349.83,287.57,349.12,285.63,348.19,283.92Z"/><circle class="cls-5" cx="349.62" cy="349.63" r="246.18"/><line class="cls-6" x1="595.81" y1="350.63" x2="595.81" y2="671.51"/><line class="cls-6" x1="217.23" y1="350.62" x2="217.23" y2="671.5"/><line class="cls-6" x1="141.52" y1="350.62" x2="141.52" y2="671.5"/><line class="cls-6" x1="557.95" y1="350.62" x2="557.95" y2="671.5"/><line class="cls-6" x1="482.24" y1="350.63" x2="482.24" y2="671.51"/><text class="cls-7" transform="translate(161.33 486.73) rotate(50.3)">R</text><text class="cls-7" transform="translate(186.65 515.76) rotate(41.19)">Ê</text><text class="cls-7" transform="translate(214.03 538.69) rotate(32.44)">E</text><text class="cls-7" transform="matrix(0.91, 0.41, -0.41, 0.91, 244.4, 557.02)">L</text><text class="cls-7" transform="translate(273.33 569.06) rotate(17.6)"> </text><text class="cls-7" transform="matrix(0.98, 0.18, -0.18, 0.98, 293.7, 575.5)">C</text><text class="cls-7" transform="translate(335.18 582.01) rotate(-0.93)">O</text><text class="cls-7" transform="translate(377.96 580.8) rotate(-11.45)">M</text><text class="cls-7" transform="translate(425.4 569.56) rotate(-22.26)">P</text><text class="cls-7" transform="matrix(0.86, -0.52, 0.52, 0.86, 458.33, 555.35)">A</text><text class="cls-7" transform="translate(490.79 534.77) rotate(-40.99)">N</text><text class="cls-7" transform="translate(521.37 506.75) rotate(-50.59)">Y</text><text class="cls-7" transform="matrix(0.54, -0.84, 0.84, 0.54, 538.08, 476.23)"> </text><line class="cls-8" x1="582.15" y1="65.77" x2="117.31" y2="65.77"/><text class="cls-9" transform="translate(329 59.88)">36’75X</text><polygon class="cls-3" points="103.66 65.77 117.31 70.53 117.31 61.02 103.66 65.77"/><polygon class="cls-3" points="596.17 65.77 582.51 70.53 582.51 61.02 596.17 65.77"/><line class="cls-10" x1="204.66" y1="633.64" x2="154.09" y2="633.64"/><line class="cls-11" x1="469.66" y1="633.64" x2="229.81" y2="633.64"/><line class="cls-10" x1="633.43" y1="633.64" x2="609.46" y2="633.64"/><text class="cls-9" transform="translate(330.2 627.74)">19’75X</text><text class="cls-9" transform="translate(569.36 627.74)">3X</text><text class="cls-9" transform="translate(166.51 627.74)">5’5X</text><text class="cls-12" transform="translate(47.06 222.11)">5’5X</text><polygon class="cls-3" points="141.51 633.64 154.09 638.39 154.09 628.88 141.51 633.64"/><polygon class="cls-3" points="217.23 633.64 204.66 638.39 204.66 628.88 217.23 633.64"/><polygon class="cls-3" points="217.23 633.64 229.81 638.39 229.81 628.88 217.23 633.64"/><polygon class="cls-3" points="482.24 633.64 469.66 638.39 469.66 628.88 482.24 633.64"/><polygon class="cls-3" points="595.81 633.64 609.46 638.39 609.46 628.88 595.81 633.64"/><line class="cls-10" x1="519.86" y1="633.64" x2="544.3" y2="633.64"/><line class="cls-10" x1="557.95" y1="633.64" x2="595.58" y2="633.64"/><polygon class="cls-3" points="557.95 633.64 544.29 638.39 544.29 628.88 557.95 633.64"/><polyline class="cls-6" points="595.81 27.91 595.81 349.63 103.44 349.63 103.43 27.91"/></g></g></svg>