<svg xmlns="http://www.w3.org/2000/svg" width="170" height="169.997" viewBox="0 0 170 169.997">
  <g id="Grupo_179" data-name="Grupo 179" transform="translate(-1522.593 -234.77)">
    <circle id="Elipse_937" data-name="Elipse 937" cx="2.458" cy="2.458" r="2.458" transform="translate(1532.529 351.873)" fill="#cc554a"/>
    <circle id="Elipse_938" data-name="Elipse 938" cx="2.458" cy="2.458" r="2.458" transform="translate(1677.631 351.873)" fill="#cc554a"/>
    <g id="Grupo_178" data-name="Grupo 178" transform="translate(1522.593 234.769)">
      <g id="Grupo_136" data-name="Grupo 136" transform="translate(0)">
        <path id="Trazado_409" data-name="Trazado 409" d="M-1027.759,2889.524l-.471-2.731,6.462-4.373-7.549-1.927-.468-2.707,9.032-1.56.307,1.784-7.476,1.212,0,.025,8.039,2.052.28,1.618-6.891,4.6,0,.027,7.45-1.364.308,1.782Z" transform="translate(1030.037 -2783.754)" fill="#cc554a"/>
        <path id="Trazado_410" data-name="Trazado 410" d="M-1030.437,2849.177l-.039-2.285,9.1-4.235.036,2.144-2.255,1,.073,4.311,2.288.912.034,2.079Zm5.41-2.774-3.837,1.629,3.89,1.528Z" transform="translate(1030.476 -2762.413)" fill="#cc554a"/>
        <path id="Trazado_411" data-name="Trazado 411" d="M-1029.67,2818.161l.278-1.906,4.2.614-3.528-5.249.381-2.617,3.067,4.767,6.042-3.71-.376,2.578-4.676,2.8,1.135,1.735,2.82.411-.278,1.906Z" transform="translate(1029.964 -2741.018)" fill="#cc554a"/>
        <path id="Trazado_412" data-name="Trazado 412" d="M-1023.705,2786.32l2.276-7.627,1.378.41-1.725,5.783,2.215.661,1.655-5.548,1.378.411-1.656,5.55,2.436.726,1.754-5.881,1.378.411-2.3,7.727Z" transform="translate(1026.171 -2721.749)" fill="#cc554a"/>
        <path id="Trazado_413" data-name="Trazado 413" d="M-1001.083,2739.549l-6.9.763,1.136-2.056,4.84-.319-2.308-4.266,1.136-2.056,3.031,6.249,3.057,1.688-.931,1.686Z" transform="translate(1016.179 -2691.82)" fill="#cc554a"/>
        <path id="Trazado_414" data-name="Trazado 414" d="M-984.266,2716.22c-2.043-1.578-2.905-4.157-.536-7.226s5.083-2.888,7.126-1.31,2.905,4.157.536,7.226S-982.224,2717.8-984.266,2716.22Zm5.366-6.95a3.164,3.164,0,0,0-4.764.6,3.163,3.163,0,0,0,.621,4.761,3.164,3.164,0,0,0,4.764-.6A3.164,3.164,0,0,0-978.9,2709.27Z" transform="translate(1002.347 -2675.899)" fill="#cc554a"/>
        <path id="Trazado_415" data-name="Trazado 415" d="M-965.759,2683.828l1.4-1.321,3.547,3.767c.871.925,1.955,2.02,3.788.3s.8-2.891-.058-3.807l-3.547-3.768,1.4-1.32,3.582,3.805c1.038,1.1,2.84,3.091-.394,6.136s-5.093,1.127-6.141.015Z" transform="translate(989.334 -2657.529)" fill="#cc554a"/>
        <path id="Trazado_416" data-name="Trazado 416" d="M-938.95,2663.377l4.776-3.3c1.923-1.328,3.145-.892,3.962.293a2.147,2.147,0,0,1,.008,2.677l.014.022c1.019-.424,1.763.2,2.507,1.279a3.848,3.848,0,0,0,1.433,1.4l-1.712,1.182a3.1,3.1,0,0,1-.978-1.01c-.736-1.067-1.427-1.729-2.579-.934l-2.694,1.86,2.057,2.979-1.585,1.095Zm6.656.4c.888-.613,1.17-1.2.586-2.043-.547-.792-1.258-.738-2.1-.155l-2.738,1.89,1.518,2.2Z" transform="translate(972.162 -2645.825)" fill="#cc554a"/>
        <path id="Trazado_417" data-name="Trazado 417" d="M-893.973,2639.411l4.6-1.815c3.343-1.321,4.922.264,5.885,2.7.722,1.827.815,4.509-2.087,5.655l-5.028,1.986Zm4.631,6.482,2.52-.994c1.29-.51,2.5-1.47,1.512-3.967-1.094-2.77-2.916-2.244-3.919-1.847l-2.424.957Z" transform="translate(943.508 -2631.746)" fill="#cc554a"/>
        <path id="Trazado_418" data-name="Trazado 418" d="M-859.689,2628.4l5.659-1.28c2.279-.514,3.249.345,3.566,1.748a2.146,2.146,0,0,1-.991,2.487l.006.025c1.1-.012,1.56.846,1.848,2.123a3.842,3.842,0,0,0,.808,1.83l-2.028.458a3.092,3.092,0,0,1-.531-1.3c-.286-1.264-.679-2.135-2.045-1.827l-3.193.72.8,3.531-1.878.425Zm6.026,2.85c1.052-.239,1.532-.676,1.306-1.677-.212-.939-.892-1.154-1.894-.927l-3.243.732.588,2.6Z" transform="translate(921.665 -2625.295)" fill="#cc554a"/>
        <path id="Trazado_419" data-name="Trazado 419" d="M-825.322,2622.99l7.936-.619.112,1.434-6.016.469.18,2.3,5.773-.449.112,1.434-5.773.45.2,2.534,6.118-.479.112,1.434-8.038.627Z" transform="translate(899.773 -2622.371)" fill="#cc554a"/>
        <path id="Trazado_420" data-name="Trazado 420" d="M-792.852,2622.808l2.281.143,3.5,9.4-2.14-.134-.819-2.328-4.305-.269-1.09,2.208-2.076-.13Zm2.337,5.612-1.322-3.953-1.83,3.757Z" transform="translate(882.044 -2622.649)" fill="#cc554a"/>
        <path id="Trazado_421" data-name="Trazado 421" d="M-761.947,2625.065l2.7.64,1.484,7.661,4.737-6.188,2.674.634-2.113,8.918-1.761-.417,1.82-7.353-.025-.006-5.043,6.589-1.6-.378-1.527-8.145-.025-.006-1.671,7.388-1.761-.417Z" transform="translate(860.731 -2624.084)" fill="#cc554a"/>
        <path id="Trazado_422" data-name="Trazado 422" d="M-717.663,2638.938c1.3.547,3.793,1.877,3,4.427l-1.917-.81c.22-.687-.077-1.634-1.556-2.258-1.183-.5-2.114-.474-2.453.332-.843,2,6.265,2.724,4.739,6.345-.918,2.177-3.417,1.792-5.216,1.034-3.041-1.283-3.744-2.987-3.031-4.776l1.917.808c-.427,1.144.265,2.048,1.732,2.667,1.089.458,2.222.547,2.606-.365.883-2.094-6.109-2.9-4.647-6.363C-721.694,2638.088-719.721,2638.069-717.663,2638.938Z" transform="translate(835.445 -2632.552)" fill="#cc554a"/>
        <path id="Trazado_423" data-name="Trazado 423" d="M-673.632,2668.234a2.681,2.681,0,0,0-1.113-3.516c-1.45-1.039-3.2-.842-4.594,1.1a3.083,3.083,0,0,0,.734,4.507,2.637,2.637,0,0,0,3.649-.243l1.69,1.211c-1.274,1.314-3.392,2.2-6.448.007a4.556,4.556,0,0,1-1.155-6.784c1.5-2.1,4.061-3.043,6.982-.95,2.567,1.84,2.937,4.144,1.945,5.881Z" transform="translate(808.391 -2647.812)" fill="#cc554a"/>
        <path id="Trazado_424" data-name="Trazado 424" d="M-653.322,2686.547c1.821-1.828,4.488-2.359,7.235.376s2.225,5.405.4,7.234-4.489,2.359-7.235-.377S-655.143,2688.375-653.322,2686.547Zm6.221,6.2a3.165,3.165,0,0,0,0-4.8,3.164,3.164,0,0,0-4.8.019,3.163,3.163,0,0,0,0,4.8A3.164,3.164,0,0,0-647.1,2692.743Z" transform="translate(791.06 -2662.201)" fill="#cc554a"/>
        <path id="Trazado_425" data-name="Trazado 425" d="M-626.937,2709.307l1.588,2.274-3.994,6.7,7.655-1.461,1.573,2.253-7.517,5.248-1.036-1.485,6.256-4.273-.015-.021-8.152,1.558-.941-1.348,4.285-7.094-.014-.022-6.168,4.4-1.036-1.484Z" transform="translate(778.104 -2677.638)" fill="#cc554a"/>
        <path id="Trazado_426" data-name="Trazado 426" d="M-603.977,2746.647l3.421,7.189-1.3.619-2.593-5.452-2.087,1,2.488,5.229-1.3.618-2.489-5.229-2.3,1.092,2.637,5.542-1.3.618-3.465-7.282Z" transform="translate(763.993 -2701.377)" fill="#cc554a"/>
        <path id="Trazado_427" data-name="Trazado 427" d="M-586.438,2793.791l-.8-3.347,1.4-.334,2.05,8.566-1.4.335-.8-3.347-7.518,1.8-.448-1.873Z" transform="translate(752.359 -2729.007)" fill="#cc554a"/>
        <path id="Trazado_428" data-name="Trazado 428" d="M-580.556,2822.3l.552,5.775c.222,2.326-.753,3.18-2.185,3.318a2.15,2.15,0,0,1-2.342-1.3l-.026,0c-.127,1.1-1.035,1.439-2.339,1.564a3.833,3.833,0,0,0-1.919.571l-.2-2.071a3.119,3.119,0,0,1,1.358-.362c1.291-.123,2.2-.4,2.072-1.8l-.312-3.258-3.6.345-.183-1.917Zm-3.59,5.617c.1,1.073.476,1.605,1.5,1.508.958-.093,1.257-.74,1.159-1.761l-.316-3.31-2.658.253Z" transform="translate(749.641 -2749.469)" fill="#cc554a"/>
        <path id="Trazado_429" data-name="Trazado 429" d="M-578.991,2856.594l-.1,1.923-5.166-.28c-1.269-.069-2.809-.115-2.945,2.4s1.412,2.647,2.668,2.716l5.166.28-.1,1.923-5.218-.283c-1.512-.082-4.188-.279-3.948-4.713s2.909-4.33,4.434-4.246Z" transform="translate(748.991 -2771.078)" fill="#cc554a"/>
        <path id="Trazado_430" data-name="Trazado 430" d="M-583.482,2889.732l-1.579,7.8-1.41-.285,1.2-5.915-2.266-.458-1.149,5.676-1.409-.285,1.149-5.677-2.492-.5-1.218,6.016-1.41-.285,1.6-7.9Z" transform="translate(752.431 -2791.184)" fill="#cc554a"/>
      </g>
    </g>
    <g id="Grupo_177" data-name="Grupo 177" transform="translate(1539.4 363.921)">
      <path id="Trazado_437" data-name="Trazado 437" d="M-977.393,2980.407l3.643,4.4c1.467,1.771,1.145,3.006.055,3.908a2.113,2.113,0,0,1-2.624.239l-.02.016c.5.963-.047,1.746-1.039,2.568a3.786,3.786,0,0,0-1.247,1.524l-1.305-1.575a3.042,3.042,0,0,1,.905-1.046c.983-.814,1.572-1.548.693-2.609l-2.055-2.48-2.743,2.273-1.209-1.459Zm.183,6.558c.677.816,1.275,1.043,2.053.4.729-.6.615-1.3-.029-2.075l-2.088-2.519-2.023,1.676Z" transform="translate(984.338 -2979.745)" fill="#cc554a"/>
      <path id="Trazado_438" data-name="Trazado 438" d="M-952.667,3006.533l5.89,5.162-.933,1.064-4.465-3.914-1.5,1.71,4.284,3.755-.932,1.064-4.284-3.756-1.649,1.881,4.54,3.98-.932,1.065-5.965-5.23Zm5.521,3.915-1.311-1.149-.107-1.488-1.479.1-1.311-1.149,2.493-.2,1.586,1.391Z" transform="translate(967.984 -2996.354)" fill="#cc554a"/>
      <path id="Trazado_439" data-name="Trazado 439" d="M-926.018,3027.045l6.606,4.208-.76,1.193-5.008-3.189-1.222,1.917,4.806,3.06-.76,1.194-4.805-3.061-1.344,2.109,5.093,3.245-.76,1.194-6.692-4.262Z" transform="translate(950.343 -3009.395)" fill="#cc554a"/>
      <path id="Trazado_440" data-name="Trazado 440" d="M-896.517,3043.441l1.73.773-3.071,6.873,5.006,2.237-.608,1.361-6.736-3.009Z" transform="translate(930.701 -3019.818)" fill="#cc554a"/>
      <path id="Trazado_441" data-name="Trazado 441" d="M-841.8,3065.088a2.634,2.634,0,0,0-2.475-2.652c-1.729-.311-3.2.6-3.618,2.917a3.035,3.035,0,0,0,2.558,3.695,2.6,2.6,0,0,0,3.14-1.759l2.014.362c-.576,1.705-2.084,3.386-5.728,2.732a4.484,4.484,0,0,1-3.895-5.54c.449-2.5,2.322-4.422,5.8-3.8,3.059.549,4.362,2.439,4.215,4.4Z" transform="translate(898.631 -3030.935)" fill="#cc554a"/>
      <path id="Trazado_442" data-name="Trazado 442" d="M-810.276,3069.42c-.041-2.538,1.413-4.785,5.227-4.847s5.34,2.136,5.382,4.675-1.413,4.786-5.227,4.847S-810.234,3071.959-810.276,3069.42Zm8.638-.14a3.114,3.114,0,0,0-3.389-3.293,3.115,3.115,0,0,0-3.28,3.4,3.113,3.113,0,0,0,3.388,3.292A3.113,3.113,0,0,0-801.638,3069.28Z" transform="translate(873.372 -3033.251)" fill="#cc554a"/>
      <path id="Trazado_443" data-name="Trazado 443" d="M-770.654,3060.287l2.675-.538,4.475,6.238,1.692-7.478,2.65-.533,1.778,8.842-1.746.35-1.395-7.321-.025,0-1.8,7.964-1.585.319-4.714-6.654-.024,0,1.544,7.292-1.746.351Z" transform="translate(848.104 -3029.059)" fill="#cc554a"/>
      <path id="Trazado_444" data-name="Trazado 444" d="M-727.513,3049.773l5.146-2.1a2.587,2.587,0,0,1,3.772,1.489,2.687,2.687,0,0,1-1.641,3.669l-3.415,1.392,1.3,3.182-1.754.716Zm3.328,3.143,2.819-1.149c.994-.405,1.422-.895,1.017-1.888a1.31,1.31,0,0,0-1.928-.714l-2.947,1.2Z" transform="translate(820.614 -3022.312)" fill="#cc554a"/>
      <path id="Trazado_445" data-name="Trazado 445" d="M-691.008,3034.865l1.926-1.161,8.095,5.65-1.806,1.088-1.965-1.426-3.635,2.191.353,2.4-1.752,1.057Zm5.032,3.234-3.282-2.462.621,4.065Z" transform="translate(797.251 -3013.627)" fill="#cc554a"/>
      <path id="Trazado_446" data-name="Trazado 446" d="M-669.023,3011.868l1.643-1.423,8.492,1.6.019-.017-4.433-5.119,1.375-1.19,5.905,6.818-1.614,1.4-8.521-1.579-.019.017,4.433,5.119-1.375,1.19Z" transform="translate(783.275 -2995.839)" fill="#cc554a"/>
      <path id="Trazado_447" data-name="Trazado 447" d="M-636.392,2986.644l-6.814-.512,1.471-1.782,4.738.567-1.459-4.543,1.471-1.782,1.8,6.593,2.65,2.186-1.206,1.46Z" transform="translate(766.862 -2978.591)" fill="#cc554a"/>
    </g>
  </g>
</svg>
